SplineFontDB: 3.2
FontName: somybmp01_7
FullName: somybmp01_7
FamilyName: somybmp01_7
Weight: Book
Copyright: Kazuki Takada
Version: 1.00
ItalicAngle: 0
UnderlinePosition: -120
UnderlineWidth: 48
Ascent: 880
Descent: 144
InvalidEm: 0
sfntRevision: 0x00030000
LayerCount: 2
Layer: 0 1 "Back" 1
Layer: 1 1 "Fore" 0
XUID: [1021 202 -304931521 10971541]
StyleMap: 0x0040
FSType: 4
OS2Version: 1
OS2_WeightWidthSlopeOnly: 0
OS2_UseTypoMetrics: 0
CreationTime: -2082844800
ModificationTime: 1723908295
PfmFamily: 17
TTFWeight: 400
TTFWidth: 5
LineGap: 0
VLineGap: 0
Panose: 2 11 6 0 0 0 0 0 0 0
OS2TypoAscent: 880
OS2TypoAOffset: 0
OS2TypoDescent: -144
OS2TypoDOffset: 0
OS2TypoLinegap: 0
OS2WinAscent: 880
OS2WinAOffset: 0
OS2WinDescent: 144
OS2WinDOffset: 0
HheadAscent: 880
HheadAOffset: 0
HheadDescent: -144
HheadDOffset: 0
OS2SubXSize: 512
OS2SubYSize: 512
OS2SubXOff: 0
OS2SubYOff: 368
OS2SupXSize: 512
OS2SupYSize: 512
OS2SupXOff: 0
OS2SupYOff: 440
OS2StrikeYSize: 52
OS2StrikeYPos: 264
OS2Vendor: 'Take'
OS2CodePages: 4000009f.dfd70000
OS2UnicodeRanges: 00000011.00000000.00000000.00000000
DEI: 91125
TtTable: prep
PUSHW_1
 511
SCANCTRL
PUSHB_1
 1
SCANTYPE
PUSHB_2
 1
 129
RCVT
WCVTP
PUSHB_2
 2
 130
RCVT
WCVTP
PUSHB_2
 3
 131
RCVT
WCVTP
PUSHB_2
 4
 132
RCVT
WCVTP
PUSHB_2
 5
 133
RCVT
WCVTP
PUSHB_2
 6
 134
RCVT
WCVTP
PUSHB_2
 7
 135
RCVT
WCVTP
PUSHB_2
 8
 136
RCVT
WCVTP
PUSHB_2
 9
 137
RCVT
WCVTP
PUSHB_2
 10
 138
RCVT
WCVTP
PUSHB_2
 11
 139
RCVT
WCVTP
PUSHB_2
 12
 140
RCVT
WCVTP
PUSHB_2
 13
 141
RCVT
WCVTP
PUSHB_2
 14
 142
RCVT
WCVTP
PUSHB_2
 15
 143
RCVT
WCVTP
PUSHB_2
 16
 144
RCVT
WCVTP
PUSHB_2
 17
 145
RCVT
WCVTP
PUSHB_2
 18
 146
RCVT
WCVTP
PUSHB_2
 19
 147
RCVT
WCVTP
PUSHB_2
 20
 148
RCVT
WCVTP
PUSHB_2
 21
 149
RCVT
WCVTP
PUSHB_2
 22
 150
RCVT
WCVTP
PUSHB_2
 23
 151
RCVT
WCVTP
PUSHB_2
 24
 152
RCVT
WCVTP
PUSHB_2
 25
 153
RCVT
WCVTP
PUSHB_2
 26
 154
RCVT
WCVTP
PUSHB_2
 27
 155
RCVT
WCVTP
PUSHB_2
 28
 156
RCVT
WCVTP
PUSHB_2
 29
 157
RCVT
WCVTP
PUSHB_2
 30
 158
RCVT
WCVTP
PUSHB_2

StartChar: .notdef
Encoding: 65536 -1 0
Width: 512
GlyphClass: 1
Flags: W
LayerCount: 2
Fore
SplineSet
206 400 m 1,0,-1
 206 500 l 1,1,-1
 306 500 l 1,2,-1
 306 400 l 1,3,-1
 206 400 l 1,0,-1
EndSplineSet
EndChar

StartChar: exclam
Encoding: 33 33 4
Width: 292
GlyphClass: 1
Flags: W
LayerCount: 2
Fore
SplineSet
0 149 m 1,0,-1
 0 295 l 1,1,-1
 146 295 l 1,2,-1
 146 149 l 1,3,-1
 0 149 l 1,0,-1
0 441 m 1,4,-1
 0 587 l 1,5,-1
 0 733 l 1,6,-1
 0 880 l 1,7,-1
 146 880 l 1,8,-1
 146 733 l 1,9,-1
 146 587 l 1,10,-1
 146 441 l 1,11,-1
 0 441 l 1,4,-1
EndSplineSet
EndChar

StartChar: quotedbl
Encoding: 34 34 5
Width: 730
GlyphClass: 1
Flags: W
LayerCount: 2
Fore
SplineSet
0 587 m 1,0,-1
 0 733 l 1,1,-1
 146 733 l 1,2,-1
 146 587 l 1,3,-1
 0 587 l 1,0,-1
292 587 m 1,4,-1
 292 733 l 1,5,-1
 438 733 l 1,6,-1
 438 587 l 1,7,-1
 292 587 l 1,4,-1
146 880 m 1,8,-1
 292 880 l 1,9,-1
 292 733 l 1,10,-1
 146 733 l 1,11,-1
 146 880 l 1,8,-1
438 880 m 1,12,-1
 584 880 l 1,13,-1
 584 733 l 1,14,-1
 438 733 l 1,15,-1
 438 880 l 1,12,-1
EndSplineSet
EndChar

StartChar: numbersign
Encoding: 35 35 6
Width: 876
GlyphClass: 1
Flags: W
LayerCount: 2
Fore
SplineSet
0 295 m 1,0,-1
 0 441 l 1,1,-1
 146 441 l 1,2,-1
 146 587 l 1,3,-1
 0 587 l 1,4,-1
 0 733 l 1,5,-1
 146 733 l 1,6,-1
 146 880 l 1,7,-1
 292 880 l 1,8,-1
 292 733 l 1,9,-1
 438 733 l 1,10,-1
 438 880 l 1,11,-1
 584 880 l 1,12,-1
 584 733 l 1,13,-1
 730 733 l 1,14,-1
 730 587 l 1,15,-1
 584 587 l 1,16,-1
 584 441 l 1,17,-1
 730 441 l 1,18,-1
 730 295 l 1,19,-1
 584 295 l 1,20,-1
 584 149 l 1,21,-1
 438 149 l 1,22,-1
 438 295 l 1,23,-1
 292 295 l 1,24,-1
 292 149 l 1,25,-1
 146 149 l 1,26,-1
 146 295 l 1,27,-1
 0 295 l 1,0,-1
292 587 m 1,28,-1
 292 441 l 1,29,-1
 438 441 l 1,30,-1
 438 587 l 1,31,-1
 292 587 l 1,28,-1
EndSplineSet
EndChar

StartChar: dollar
Encoding: 36 36 7
Width: 876
GlyphClass: 1
Flags: W
LayerCount: 2
Fore
SplineSet
0 149 m 1,0,-1
 0 295 l 1,1,-1
 146 295 l 1,2,-1
 292 295 l 1,3,-1
 292 441 l 1,4,-1
 146 441 l 1,5,-1
 146 587 l 1,6,-1
 292 587 l 1,7,-1
 292 733 l 1,8,-1
 146 733 l 1,9,-1
 146 880 l 1,10,-1
 292 880 l 1,11,-1
 438 880 l 1,12,-1
 584 880 l 1,13,-1
 730 880 l 1,14,-1
 730 733 l 1,15,-1
 584 733 l 1,16,-1
 438 733 l 1,17,-1
 438 587 l 1,18,-1
 584 587 l 1,19,-1
 584 441 l 1,20,-1
 438 441 l 1,21,-1
 438 295 l 1,22,-1
 584 295 l 1,23,-1
 584 149 l 1,24,-1
 438 149 l 1,25,-1
 292 149 l 1,26,-1
 146 149 l 1,27,-1
 0 149 l 1,0,-1
0 587 m 1,28,-1
 0 733 l 1,29,-1
 146 733 l 1,30,-1
 146 587 l 1,31,-1
 0 587 l 1,28,-1
730 441 m 1,32,-1
 730 295 l 1,33,-1
 584 295 l 1,34,-1
 584 441 l 1,35,-1
 730 441 l 1,32,-1
EndSplineSet
EndChar

StartChar: percent
Encoding: 37 37 8
Width: 876
GlyphClass: 1
Flags: W
LayerCount: 2
Fore
SplineSet
0 149 m 1,0,-1
 0 295 l 1,1,-1
 146 295 l 1,2,-1
 146 149 l 1,3,-1
 0 149 l 1,0,-1
0 587 m 1,4,-1
 0 733 l 1,5,-1
 0 880 l 1,6,-1
 146 880 l 1,7,-1
 292 880 l 1,8,-1
 292 733 l 1,9,-1
 146 733 l 1,10,-1
 146 587 l 1,11,-1
 0 587 l 1,4,-1
438 149 m 1,12,-1
 438 295 l 1,13,-1
 584 295 l 1,14,-1
 584 441 l 1,15,-1
 730 441 l 1,16,-1
 730 295 l 1,17,-1
 730 149 l 1,18,-1
 584 149 l 1,19,-1
 438 149 l 1,12,-1
146 441 m 1,20,-1
 292 441 l 1,21,-1
 292 295 l 1,22,-1
 146 295 l 1,23,-1
 146 441 l 1,20,-1
292 587 m 1,24,-1
 438 587 l 1,25,-1
 438 441 l 1,26,-1
 292 441 l 1,27,-1
 292 587 l 1,24,-1
438 733 m 1,28,-1
 584 733 l 1,29,-1
 584 587 l 1,30,-1
 438 587 l 1,31,-1
 438 733 l 1,28,-1
584 880 m 1,32,-1
 730 880 l 1,33,-1
 730 733 l 1,34,-1
 584 733 l 1,35,-1
 584 880 l 1,32,-1
EndSplineSet
EndChar

StartChar: ampersand
Encoding: 38 38 9
Width: 877
GlyphClass: 1
Flags: W
LayerCount: 2
Fore
SplineSet
0 295 m 1,0,-1
 0 441 l 1,1,-1
 146 441 l 1,2,-1
 146 295 l 1,3,-1
 0 295 l 1,0,-1
0 587 m 1,4,-1
 0 733 l 1,5,-1
 146 733 l 1,6,-1
 146 587 l 1,7,-1
 0 587 l 1,4,-1
146 149 m 1,8,-1
 146 295 l 1,9,-1
 292 295 l 1,10,-1
 438 295 l 1,11,-1
 438 149 l 1,12,-1
 292 149 l 1,13,-1
 146 149 l 1,8,-1
584 149 m 1,14,-1
 584 295 l 1,15,-1
 730 295 l 1,16,-1
 730 149 l 1,17,-1
 584 149 l 1,14,-1
146 880 m 1,18,-1
 292 880 l 1,19,-1
 438 880 l 1,20,-1
 438 733 l 1,21,-1
 292 733 l 1,22,-1
 146 733 l 1,23,-1
 146 880 l 1,18,-1
584 441 m 1,24,-1
 584 295 l 1,25,-1
 438 295 l 1,26,-1
 438 441 l 1,27,-1
 584 441 l 1,24,-1
584 733 m 1,28,-1
 584 587 l 1,29,-1
 438 587 l 1,30,-1
 438 733 l 1,31,-1
 584 733 l 1,28,-1
146 441 m 1,32,-1
 146 587 l 1,33,-1
 292 587 l 1,34,-1
 438 587 l 1,35,-1
 438 441 l 1,36,-1
 292 441 l 1,37,-1
 146 441 l 1,32,-1
EndSplineSet
EndChar

StartChar: quotesingle
Encoding: 39 39 10
Width: 292
GlyphClass: 1
Flags: W
LayerCount: 2
Fore
SplineSet
0 587 m 1,0,-1
 0 733 l 1,1,-1
 0 880 l 1,2,-1
 146 880 l 1,3,-1
 146 733 l 1,4,-1
 146 587 l 1,5,-1
 0 587 l 1,0,-1
EndSplineSet
EndChar

StartChar: parenleft
Encoding: 40 40 11
Width: 438
GlyphClass: 1
Flags: W
LayerCount: 2
Fore
SplineSet
0 295 m 1,0,-1
 0 441 l 1,1,-1
 0 587 l 1,2,-1
 0 733 l 1,3,-1
 146 733 l 1,4,-1
 146 587 l 1,5,-1
 146 441 l 1,6,-1
 146 295 l 1,7,-1
 0 295 l 1,0,-1
146 149 m 1,8,-1
 146 295 l 1,9,-1
 292 295 l 1,10,-1
 292 149 l 1,11,-1
 146 149 l 1,8,-1
146 880 m 1,12,-1
 292 880 l 1,13,-1
 292 733 l 1,14,-1
 146 733 l 1,15,-1
 146 880 l 1,12,-1
EndSplineSet
EndChar

StartChar: parenright
Encoding: 41 41 12
Width: 438
GlyphClass: 1
Flags: W
LayerCount: 2
Fore
SplineSet
0 149 m 1,0,-1
 0 295 l 1,1,-1
 146 295 l 1,2,-1
 146 149 l 1,3,-1
 0 149 l 1,0,-1
0 733 m 1,4,-1
 0 880 l 1,5,-1
 146 880 l 1,6,-1
 146 733 l 1,7,-1
 0 733 l 1,4,-1
292 295 m 1,8,-1
 146 295 l 1,9,-1
 146 441 l 1,10,-1
 146 587 l 1,11,-1
 146 733 l 1,12,-1
 292 733 l 1,13,-1
 292 587 l 1,14,-1
 292 441 l 1,15,-1
 292 295 l 1,8,-1
EndSplineSet
EndChar

StartChar: asterisk
Encoding: 42 42 13
Width: 877
GlyphClass: 1
Flags: W
LayerCount: 2
Fore
SplineSet
0 149 m 1,0,-1
 0 295 l 1,1,-1
 146 295 l 1,2,-1
 146 149 l 1,3,-1
 0 149 l 1,0,-1
0 733 m 1,4,-1
 0 880 l 1,5,-1
 146 880 l 1,6,-1
 146 733 l 1,7,-1
 0 733 l 1,4,-1
146 587 m 1,8,-1
 146 733 l 1,9,-1
 292 733 l 1,10,-1
 292 880 l 1,11,-1
 438 880 l 1,12,-1
 438 733 l 1,13,-1
 584 733 l 1,14,-1
 584 587 l 1,15,-1
 438 587 l 1,16,-1
 438 441 l 1,17,-1
 584 441 l 1,18,-1
 584 295 l 1,19,-1
 438 295 l 1,20,-1
 438 149 l 1,21,-1
 292 149 l 1,22,-1
 292 295 l 1,23,-1
 146 295 l 1,24,-1
 146 441 l 1,25,-1
 292 441 l 1,26,-1
 292 587 l 1,27,-1
 146 587 l 1,8,-1
584 149 m 1,28,-1
 584 295 l 1,29,-1
 730 295 l 1,30,-1
 730 149 l 1,31,-1
 584 149 l 1,28,-1
584 880 m 1,32,-1
 730 880 l 1,33,-1
 730 733 l 1,34,-1
 584 733 l 1,35,-1
 584 880 l 1,32,-1
EndSplineSet
EndChar

StartChar: plus
Encoding: 43 43 14
Width: 877
GlyphClass: 1
Flags: W
LayerCount: 2
Fore
SplineSet
0 441 m 1,0,-1
 0 587 l 1,1,-1
 146 587 l 1,2,-1
 292 587 l 1,3,-1
 292 733 l 1,4,-1
 292 880 l 1,5,-1
 438 880 l 1,6,-1
 438 733 l 1,7,-1
 438 587 l 1,8,-1
 584 587 l 1,9,-1
 730 587 l 1,10,-1
 730 441 l 1,11,-1
 584 441 l 1,12,-1
 438 441 l 1,13,-1
 438 295 l 1,14,-1
 438 149 l 1,15,-1
 292 149 l 1,16,-1
 292 295 l 1,17,-1
 292 441 l 1,18,-1
 146 441 l 1,19,-1
 0 441 l 1,0,-1
EndSplineSet
EndChar

StartChar: comma
Encoding: 44 44 15
Width: 292
GlyphClass: 1
Flags: W
LayerCount: 2
Fore
SplineSet
0 3 m 1,0,-1
 0 149 l 1,1,-1
 0 295 l 1,2,-1
 146 295 l 1,3,-1
 146 149 l 1,4,-1
 146 3 l 1,5,-1
 0 3 l 1,0,-1
EndSplineSet
EndChar

StartChar: hyphen
Encoding: 45 45 16
Width: 731
GlyphClass: 1
Flags: W
LayerCount: 2
Fore
SplineSet
0 441 m 1,0,-1
 0 587 l 1,1,-1
 146 587 l 1,2,-1
 292 587 l 1,3,-1
 438 587 l 1,4,-1
 584 587 l 1,5,-1
 584 441 l 1,6,-1
 438 441 l 1,7,-1
 292 441 l 1,8,-1
 146 441 l 1,9,-1
 0 441 l 1,0,-1
EndSplineSet
EndChar

StartChar: period
Encoding: 46 46 17
Width: 292
GlyphClass: 1
Flags: W
LayerCount: 2
Fore
SplineSet
0 149 m 1,0,-1
 0 295 l 1,1,-1
 146 295 l 1,2,-1
 146 149 l 1,3,-1
 0 149 l 1,0,-1
EndSplineSet
EndChar

StartChar: slash
Encoding: 47 47 18
Width: 584
GlyphClass: 1
Flags: W
LayerCount: 2
Fore
SplineSet
0 149 m 1,0,-1
 0 295 l 1,1,-1
 0 441 l 1,2,-1
 146 441 l 1,3,-1
 146 295 l 1,4,-1
 146 149 l 1,5,-1
 0 149 l 1,0,-1
146 587 m 1,6,-1
 292 587 l 1,7,-1
 292 441 l 1,8,-1
 146 441 l 1,9,-1
 146 587 l 1,6,-1
438 587 m 1,10,-1
 292 587 l 1,11,-1
 292 733 l 1,12,-1
 292 880 l 1,13,-1
 438 880 l 1,14,-1
 438 733 l 1,15,-1
 438 587 l 1,10,-1
EndSplineSet
EndChar

StartChar: zero
Encoding: 48 48 19
Width: 731
GlyphClass: 1
Flags: W
LayerCount: 2
Fore
SplineSet
0 295 m 1,0,-1
 0 441 l 1,1,-1
 0 587 l 1,2,-1
 0 733 l 1,3,-1
 146 733 l 1,4,-1
 146 587 l 1,5,-1
 146 441 l 1,6,-1
 146 295 l 1,7,-1
 0 295 l 1,0,-1
146 149 m 1,8,-1
 146 295 l 1,9,-1
 292 295 l 1,10,-1
 438 295 l 1,11,-1
 438 149 l 1,12,-1
 292 149 l 1,13,-1
 146 149 l 1,8,-1
146 880 m 1,14,-1
 292 880 l 1,15,-1
 438 880 l 1,16,-1
 438 733 l 1,17,-1
 292 733 l 1,18,-1
 146 733 l 1,19,-1
 146 880 l 1,14,-1
584 295 m 1,20,-1
 438 295 l 1,21,-1
 438 441 l 1,22,-1
 438 587 l 1,23,-1
 438 733 l 1,24,-1
 584 733 l 1,25,-1
 584 587 l 1,26,-1
 584 441 l 1,27,-1
 584 295 l 1,20,-1
EndSplineSet
EndChar

StartChar: one
Encoding: 49 49 20
Width: 438
GlyphClass: 1
Flags: W
LayerCount: 2
Fore
SplineSet
0 733 m 1,0,-1
 0 880 l 1,1,-1
 146 880 l 1,2,-1
 292 880 l 1,3,-1
 292 733 l 1,4,-1
 292 587 l 1,5,-1
 292 441 l 1,6,-1
 292 295 l 1,7,-1
 292 149 l 1,8,-1
 146 149 l 1,9,-1
 146 295 l 1,10,-1
 146 441 l 1,11,-1
 146 587 l 1,12,-1
 146 733 l 1,13,-1
 0 733 l 1,0,-1
EndSplineSet
EndChar

StartChar: two
Encoding: 50 50 21
Width: 731
GlyphClass: 1
Flags: W
LayerCount: 2
Fore
SplineSet
0 149 m 1,0,-1
 0 295 l 1,1,-1
 0 441 l 1,2,-1
 146 441 l 1,3,-1
 146 295 l 1,4,-1
 292 295 l 1,5,-1
 438 295 l 1,6,-1
 584 295 l 1,7,-1
 584 149 l 1,8,-1
 438 149 l 1,9,-1
 292 149 l 1,10,-1
 146 149 l 1,11,-1
 0 149 l 1,0,-1
0 733 m 1,12,-1
 0 880 l 1,13,-1
 146 880 l 1,14,-1
 292 880 l 1,15,-1
 438 880 l 1,16,-1
 438 733 l 1,17,-1
 292 733 l 1,18,-1
 146 733 l 1,19,-1
 0 733 l 1,12,-1
146 587 m 1,20,-1
 292 587 l 1,21,-1
 438 587 l 1,22,-1
 438 733 l 1,23,-1
 584 733 l 1,24,-1
 584 587 l 1,25,-1
 584 441 l 1,26,-1
 438 441 l 1,27,-1
 292 441 l 1,28,-1
 146 441 l 1,29,-1
 146 587 l 1,20,-1
EndSplineSet
EndChar

StartChar: three
Encoding: 51 51 22
Width: 731
GlyphClass: 1
Flags: W
LayerCount: 2
Fore
SplineSet
0 149 m 1,0,-1
 0 295 l 1,1,-1
 146 295 l 1,2,-1
 292 295 l 1,3,-1
 438 295 l 1,4,-1
 438 149 l 1,5,-1
 292 149 l 1,6,-1
 146 149 l 1,7,-1
 0 149 l 1,0,-1
0 441 m 1,8,-1
 0 587 l 1,9,-1
 146 587 l 1,10,-1
 292 587 l 1,11,-1
 438 587 l 1,12,-1
 438 441 l 1,13,-1
 292 441 l 1,14,-1
 146 441 l 1,15,-1
 0 441 l 1,8,-1
0 733 m 1,16,-1
 0 880 l 1,17,-1
 146 880 l 1,18,-1
 292 880 l 1,19,-1
 438 880 l 1,20,-1
 438 733 l 1,21,-1
 292 733 l 1,22,-1
 146 733 l 1,23,-1
 0 733 l 1,16,-1
584 441 m 1,24,-1
 584 295 l 1,25,-1
 438 295 l 1,26,-1
 438 441 l 1,27,-1
 584 441 l 1,24,-1
584 733 m 1,28,-1
 584 587 l 1,29,-1
 438 587 l 1,30,-1
 438 733 l 1,31,-1
 584 733 l 1,28,-1
EndSplineSet
EndChar

StartChar: four
Encoding: 52 52 23
Width: 731
GlyphClass: 1
Flags: W
LayerCount: 2
Fore
SplineSet
0 295 m 1,0,-1
 0 441 l 1,1,-1
 0 587 l 1,2,-1
 0 733 l 1,3,-1
 146 733 l 1,4,-1
 146 587 l 1,5,-1
 146 441 l 1,6,-1
 292 441 l 1,7,-1
 292 587 l 1,8,-1
 292 733 l 1,9,-1
 146 733 l 1,10,-1
 146 880 l 1,11,-1
 292 880 l 1,12,-1
 438 880 l 1,13,-1
 438 733 l 1,14,-1
 438 587 l 1,15,-1
 438 441 l 1,16,-1
 584 441 l 1,17,-1
 584 295 l 1,18,-1
 438 295 l 1,19,-1
 438 149 l 1,20,-1
 292 149 l 1,21,-1
 292 295 l 1,22,-1
 146 295 l 1,23,-1
 0 295 l 1,0,-1
EndSplineSet
EndChar

StartChar: five
Encoding: 53 53 24
Width: 731
GlyphClass: 1
Flags: W
LayerCount: 2
Fore
SplineSet
0 149 m 1,0,-1
 0 295 l 1,1,-1
 146 295 l 1,2,-1
 292 295 l 1,3,-1
 438 295 l 1,4,-1
 438 149 l 1,5,-1
 292 149 l 1,6,-1
 146 149 l 1,7,-1
 0 149 l 1,0,-1
0 441 m 1,8,-1
 0 587 l 1,9,-1
 0 733 l 1,10,-1
 0 880 l 1,11,-1
 146 880 l 1,12,-1
 292 880 l 1,13,-1
 438 880 l 1,14,-1
 584 880 l 1,15,-1
 584 733 l 1,16,-1
 438 733 l 1,17,-1
 292 733 l 1,18,-1
 146 733 l 1,19,-1
 146 587 l 1,20,-1
 292 587 l 1,21,-1
 438 587 l 1,22,-1
 438 441 l 1,23,-1
 292 441 l 1,24,-1
 146 441 l 1,25,-1
 0 441 l 1,8,-1
584 441 m 1,26,-1
 584 295 l 1,27,-1
 438 295 l 1,28,-1
 438 441 l 1,29,-1
 584 441 l 1,26,-1
EndSplineSet
EndChar

StartChar: six
Encoding: 54 54 25
Width: 731
GlyphClass: 1
Flags: W
LayerCount: 2
Fore
SplineSet
0 295 m 1,0,-1
 0 441 l 1,1,-1
 0 587 l 1,2,-1
 0 733 l 1,3,-1
 146 733 l 1,4,-1
 146 587 l 1,5,-1
 292 587 l 1,6,-1
 438 587 l 1,7,-1
 438 441 l 1,8,-1
 292 441 l 1,9,-1
 146 441 l 1,10,-1
 146 295 l 1,11,-1
 0 295 l 1,0,-1
146 149 m 1,12,-1
 146 295 l 1,13,-1
 292 295 l 1,14,-1
 438 295 l 1,15,-1
 438 149 l 1,16,-1
 292 149 l 1,17,-1
 146 149 l 1,12,-1
146 880 m 1,18,-1
 292 880 l 1,19,-1
 438 880 l 1,20,-1
 438 733 l 1,21,-1
 292 733 l 1,22,-1
 146 733 l 1,23,-1
 146 880 l 1,18,-1
584 441 m 1,24,-1
 584 295 l 1,25,-1
 438 295 l 1,26,-1
 438 441 l 1,27,-1
 584 441 l 1,24,-1
EndSplineSet
EndChar

StartChar: seven
Encoding: 55 55 26
Width: 731
GlyphClass: 1
Flags: W
LayerCount: 2
Fore
SplineSet
0 149 m 1,0,-1
 0 295 l 1,1,-1
 146 295 l 1,2,-1
 146 149 l 1,3,-1
 0 149 l 1,0,-1
0 733 m 1,4,-1
 0 880 l 1,5,-1
 146 880 l 1,6,-1
 292 880 l 1,7,-1
 438 880 l 1,8,-1
 584 880 l 1,9,-1
 584 733 l 1,10,-1
 584 587 l 1,11,-1
 438 587 l 1,12,-1
 438 733 l 1,13,-1
 292 733 l 1,14,-1
 146 733 l 1,15,-1
 0 733 l 1,4,-1
146 441 m 1,16,-1
 292 441 l 1,17,-1
 292 295 l 1,18,-1
 146 295 l 1,19,-1
 146 441 l 1,16,-1
292 587 m 1,20,-1
 438 587 l 1,21,-1
 438 441 l 1,22,-1
 292 441 l 1,23,-1
 292 587 l 1,20,-1
EndSplineSet
EndChar

StartChar: eight
Encoding: 56 56 27
Width: 731
GlyphClass: 1
Flags: W
LayerCount: 2
Fore
SplineSet
0 295 m 1,0,-1
 0 441 l 1,1,-1
 146 441 l 1,2,-1
 146 295 l 1,3,-1
 0 295 l 1,0,-1
0 587 m 1,4,-1
 0 733 l 1,5,-1
 146 733 l 1,6,-1
 146 587 l 1,7,-1
 0 587 l 1,4,-1
146 149 m 1,8,-1
 146 295 l 1,9,-1
 292 295 l 1,10,-1
 438 295 l 1,11,-1
 438 149 l 1,12,-1
 292 149 l 1,13,-1
 146 149 l 1,8,-1
146 880 m 1,14,-1
 292 880 l 1,15,-1
 438 880 l 1,16,-1
 438 733 l 1,17,-1
 292 733 l 1,18,-1
 146 733 l 1,19,-1
 146 880 l 1,14,-1
584 441 m 1,20,-1
 584 295 l 1,21,-1
 438 295 l 1,22,-1
 438 441 l 1,23,-1
 584 441 l 1,20,-1
584 733 m 1,24,-1
 584 587 l 1,25,-1
 438 587 l 1,26,-1
 438 733 l 1,27,-1
 584 733 l 1,24,-1
146 441 m 1,28,-1
 146 587 l 1,29,-1
 292 587 l 1,30,-1
 438 587 l 1,31,-1
 438 441 l 1,32,-1
 292 441 l 1,33,-1
 146 441 l 1,28,-1
EndSplineSet
EndChar

StartChar: nine
Encoding: 57 57 28
Width: 731
GlyphClass: 1
Flags: W
LayerCount: 2
Fore
SplineSet
0 587 m 1,0,-1
 0 733 l 1,1,-1
 146 733 l 1,2,-1
 146 587 l 1,3,-1
 0 587 l 1,0,-1
146 149 m 1,4,-1
 146 295 l 1,5,-1
 292 295 l 1,6,-1
 438 295 l 1,7,-1
 438 149 l 1,8,-1
 292 149 l 1,9,-1
 146 149 l 1,4,-1
146 441 m 1,10,-1
 146 587 l 1,11,-1
 292 587 l 1,12,-1
 438 587 l 1,13,-1
 438 733 l 1,14,-1
 584 733 l 1,15,-1
 584 587 l 1,16,-1
 584 441 l 1,17,-1
 584 295 l 1,18,-1
 438 295 l 1,19,-1
 438 441 l 1,20,-1
 292 441 l 1,21,-1
 146 441 l 1,10,-1
146 880 m 1,22,-1
 292 880 l 1,23,-1
 438 880 l 1,24,-1
 438 733 l 1,25,-1
 292 733 l 1,26,-1
 146 733 l 1,27,-1
 146 880 l 1,22,-1
EndSplineSet
EndChar

StartChar: colon
Encoding: 58 58 29
Width: 292
GlyphClass: 1
Flags: W
LayerCount: 2
Fore
SplineSet
0 295 m 1,0,-1
 0 441 l 1,1,-1
 146 441 l 1,2,-1
 146 295 l 1,3,-1
 0 295 l 1,0,-1
0 587 m 1,4,-1
 0 733 l 1,5,-1
 146 733 l 1,6,-1
 146 587 l 1,7,-1
 0 587 l 1,4,-1
EndSplineSet
EndChar

StartChar: semicolon
Encoding: 59 59 30
Width: 292
GlyphClass: 1
Flags: W
LayerCount: 2
Fore
SplineSet
0 149 m 1,0,-1
 0 295 l 1,1,-1
 0 441 l 1,2,-1
 146 441 l 1,3,-1
 146 295 l 1,4,-1
 146 149 l 1,5,-1
 0 149 l 1,0,-1
0 587 m 1,6,-1
 0 733 l 1,7,-1
 146 733 l 1,8,-1
 146 587 l 1,9,-1
 0 587 l 1,6,-1
EndSplineSet
EndChar

StartChar: less
Encoding: 60 60 31
Width: 584
GlyphClass: 1
Flags: W
LayerCount: 2
Fore
SplineSet
0 441 m 1,0,-1
 0 587 l 1,1,-1
 146 587 l 1,2,-1
 146 441 l 1,3,-1
 0 441 l 1,0,-1
146 295 m 1,4,-1
 146 441 l 1,5,-1
 292 441 l 1,6,-1
 292 295 l 1,7,-1
 146 295 l 1,4,-1
292 149 m 1,8,-1
 292 295 l 1,9,-1
 438 295 l 1,10,-1
 438 149 l 1,11,-1
 292 149 l 1,8,-1
146 733 m 1,12,-1
 292 733 l 1,13,-1
 292 587 l 1,14,-1
 146 587 l 1,15,-1
 146 733 l 1,12,-1
292 880 m 1,16,-1
 438 880 l 1,17,-1
 438 733 l 1,18,-1
 292 733 l 1,19,-1
 292 880 l 1,16,-1
EndSplineSet
EndChar

StartChar: equal
Encoding: 61 61 32
Width: 731
GlyphClass: 1
Flags: W
LayerCount: 2
Fore
SplineSet
0 295 m 1,0,-1
 0 441 l 1,1,-1
 146 441 l 1,2,-1
 292 441 l 1,3,-1
 438 441 l 1,4,-1
 584 441 l 1,5,-1
 584 295 l 1,6,-1
 438 295 l 1,7,-1
 292 295 l 1,8,-1
 146 295 l 1,9,-1
 0 295 l 1,0,-1
0 587 m 1,10,-1
 0 733 l 1,11,-1
 146 733 l 1,12,-1
 292 733 l 1,13,-1
 438 733 l 1,14,-1
 584 733 l 1,15,-1
 584 587 l 1,16,-1
 438 587 l 1,17,-1
 292 587 l 1,18,-1
 146 587 l 1,19,-1
 0 587 l 1,10,-1
EndSplineSet
EndChar

StartChar: greater
Encoding: 62 62 33
Width: 584
GlyphClass: 1
Flags: W
LayerCount: 2
Fore
SplineSet
0 149 m 1,0,-1
 0 295 l 1,1,-1
 146 295 l 1,2,-1
 146 149 l 1,3,-1
 0 149 l 1,0,-1
0 733 m 1,4,-1
 0 880 l 1,5,-1
 146 880 l 1,6,-1
 146 733 l 1,7,-1
 0 733 l 1,4,-1
146 587 m 1,8,-1
 146 733 l 1,9,-1
 292 733 l 1,10,-1
 292 587 l 1,11,-1
 146 587 l 1,8,-1
146 441 m 1,12,-1
 292 441 l 1,13,-1
 292 295 l 1,14,-1
 146 295 l 1,15,-1
 146 441 l 1,12,-1
438 587 m 1,16,-1
 438 441 l 1,17,-1
 292 441 l 1,18,-1
 292 587 l 1,19,-1
 438 587 l 1,16,-1
EndSplineSet
EndChar

StartChar: question
Encoding: 63 63 34
Width: 731
GlyphClass: 1
Flags: W
LayerCount: 2
Fore
SplineSet
0 733 m 1,0,-1
 0 880 l 1,1,-1
 146 880 l 1,2,-1
 292 880 l 1,3,-1
 438 880 l 1,4,-1
 438 733 l 1,5,-1
 292 733 l 1,6,-1
 146 733 l 1,7,-1
 0 733 l 1,0,-1
146 149 m 1,8,-1
 146 295 l 1,9,-1
 292 295 l 1,10,-1
 292 149 l 1,11,-1
 146 149 l 1,8,-1
146 441 m 1,12,-1
 146 587 l 1,13,-1
 292 587 l 1,14,-1
 438 587 l 1,15,-1
 438 441 l 1,16,-1
 292 441 l 1,17,-1
 146 441 l 1,12,-1
584 733 m 1,18,-1
 584 587 l 1,19,-1
 438 587 l 1,20,-1
 438 733 l 1,21,-1
 584 733 l 1,18,-1
EndSplineSet
EndChar

StartChar: at
Encoding: 64 64 35
Width: 877
GlyphClass: 1
Flags: W
LayerCount: 2
Fore
SplineSet
0 149 m 1,0,-1
 0 295 l 1,1,-1
 0 441 l 1,2,-1
 0 587 l 1,3,-1
 0 733 l 1,4,-1
 146 733 l 1,5,-1
 146 587 l 1,6,-1
 146 441 l 1,7,-1
 146 295 l 1,8,-1
 146 149 l 1,9,-1
 0 149 l 1,0,-1
292 295 m 1,10,-1
 292 441 l 1,11,-1
 292 587 l 1,12,-1
 438 587 l 1,13,-1
 584 587 l 1,14,-1
 584 733 l 1,15,-1
 730 733 l 1,16,-1
 730 587 l 1,17,-1
 730 441 l 1,18,-1
 730 295 l 1,19,-1
 584 295 l 1,20,-1
 584 441 l 1,21,-1
 438 441 l 1,22,-1
 438 295 l 1,23,-1
 292 295 l 1,10,-1
438 149 m 1,24,-1
 438 295 l 1,25,-1
 584 295 l 1,26,-1
 584 149 l 1,27,-1
 438 149 l 1,24,-1
146 880 m 1,28,-1
 292 880 l 1,29,-1
 438 880 l 1,30,-1
 584 880 l 1,31,-1
 584 733 l 1,32,-1
 438 733 l 1,33,-1
 292 733 l 1,34,-1
 146 733 l 1,35,-1
 146 880 l 1,28,-1
EndSplineSet
EndChar

StartChar: A
Encoding: 65 65 36
Width: 731
GlyphClass: 1
Flags: W
LayerCount: 2
Fore
SplineSet
0 149 m 1,0,-1
 0 295 l 1,1,-1
 0 441 l 1,2,-1
 0 587 l 1,3,-1
 0 733 l 1,4,-1
 146 733 l 1,5,-1
 146 587 l 1,6,-1
 292 587 l 1,7,-1
 438 587 l 1,8,-1
 438 733 l 1,9,-1
 584 733 l 1,10,-1
 584 587 l 1,11,-1
 584 441 l 1,12,-1
 584 295 l 1,13,-1
 584 149 l 1,14,-1
 438 149 l 1,15,-1
 438 295 l 1,16,-1
 438 441 l 1,17,-1
 292 441 l 1,18,-1
 146 441 l 1,19,-1
 146 295 l 1,20,-1
 146 149 l 1,21,-1
 0 149 l 1,0,-1
146 880 m 1,22,-1
 292 880 l 1,23,-1
 438 880 l 1,24,-1
 438 733 l 1,25,-1
 292 733 l 1,26,-1
 146 733 l 1,27,-1
 146 880 l 1,22,-1
EndSplineSet
EndChar

StartChar: B
Encoding: 66 66 37
Width: 731
GlyphClass: 1
Flags: W
LayerCount: 2
Fore
SplineSet
0 149 m 1,0,-1
 0 295 l 1,1,-1
 0 441 l 1,2,-1
 0 587 l 1,3,-1
 0 733 l 1,4,-1
 0 880 l 1,5,-1
 146 880 l 1,6,-1
 292 880 l 1,7,-1
 438 880 l 1,8,-1
 438 733 l 1,9,-1
 292 733 l 1,10,-1
 146 733 l 1,11,-1
 146 587 l 1,12,-1
 292 587 l 1,13,-1
 438 587 l 1,14,-1
 438 441 l 1,15,-1
 292 441 l 1,16,-1
 146 441 l 1,17,-1
 146 295 l 1,18,-1
 292 295 l 1,19,-1
 438 295 l 1,20,-1
 438 149 l 1,21,-1
 292 149 l 1,22,-1
 146 149 l 1,23,-1
 0 149 l 1,0,-1
584 441 m 1,24,-1
 584 295 l 1,25,-1
 438 295 l 1,26,-1
 438 441 l 1,27,-1
 584 441 l 1,24,-1
584 733 m 1,28,-1
 584 587 l 1,29,-1
 438 587 l 1,30,-1
 438 733 l 1,31,-1
 584 733 l 1,28,-1
EndSplineSet
EndChar

StartChar: C
Encoding: 67 67 38
Width: 731
GlyphClass: 1
Flags: W
LayerCount: 2
Fore
SplineSet
0 295 m 1,0,-1
 0 441 l 1,1,-1
 0 587 l 1,2,-1
 0 733 l 1,3,-1
 146 733 l 1,4,-1
 146 587 l 1,5,-1
 146 441 l 1,6,-1
 146 295 l 1,7,-1
 0 295 l 1,0,-1
146 149 m 1,8,-1
 146 295 l 1,9,-1
 292 295 l 1,10,-1
 438 295 l 1,11,-1
 438 149 l 1,12,-1
 292 149 l 1,13,-1
 146 149 l 1,8,-1
438 587 m 1,14,-1
 438 733 l 1,15,-1
 584 733 l 1,16,-1
 584 587 l 1,17,-1
 438 587 l 1,14,-1
146 880 m 1,18,-1
 292 880 l 1,19,-1
 438 880 l 1,20,-1
 438 733 l 1,21,-1
 292 733 l 1,22,-1
 146 733 l 1,23,-1
 146 880 l 1,18,-1
438 441 m 1,24,-1
 584 441 l 1,25,-1
 584 295 l 1,26,-1
 438 295 l 1,27,-1
 438 441 l 1,24,-1
EndSplineSet
EndChar

StartChar: D
Encoding: 68 68 39
Width: 731
GlyphClass: 1
Flags: W
LayerCount: 2
Fore
SplineSet
0 149 m 1,0,-1
 0 295 l 1,1,-1
 0 441 l 1,2,-1
 0 587 l 1,3,-1
 0 733 l 1,4,-1
 0 880 l 1,5,-1
 146 880 l 1,6,-1
 292 880 l 1,7,-1
 438 880 l 1,8,-1
 438 733 l 1,9,-1
 292 733 l 1,10,-1
 146 733 l 1,11,-1
 146 587 l 1,12,-1
 146 441 l 1,13,-1
 146 295 l 1,14,-1
 292 295 l 1,15,-1
 438 295 l 1,16,-1
 438 149 l 1,17,-1
 292 149 l 1,18,-1
 146 149 l 1,19,-1
 0 149 l 1,0,-1
584 295 m 1,20,-1
 438 295 l 1,21,-1
 438 441 l 1,22,-1
 438 587 l 1,23,-1
 438 733 l 1,24,-1
 584 733 l 1,25,-1
 584 587 l 1,26,-1
 584 441 l 1,27,-1
 584 295 l 1,20,-1
EndSplineSet
EndChar

StartChar: E
Encoding: 69 69 40
Width: 731
GlyphClass: 1
Flags: W
LayerCount: 2
Fore
SplineSet
0 149 m 1,0,-1
 0 295 l 1,1,-1
 0 441 l 1,2,-1
 0 587 l 1,3,-1
 0 733 l 1,4,-1
 0 880 l 1,5,-1
 146 880 l 1,6,-1
 292 880 l 1,7,-1
 438 880 l 1,8,-1
 584 880 l 1,9,-1
 584 733 l 1,10,-1
 438 733 l 1,11,-1
 292 733 l 1,12,-1
 146 733 l 1,13,-1
 146 587 l 1,14,-1
 292 587 l 1,15,-1
 438 587 l 1,16,-1
 584 587 l 1,17,-1
 584 441 l 1,18,-1
 438 441 l 1,19,-1
 292 441 l 1,20,-1
 146 441 l 1,21,-1
 146 295 l 1,22,-1
 292 295 l 1,23,-1
 438 295 l 1,24,-1
 584 295 l 1,25,-1
 584 149 l 1,26,-1
 438 149 l 1,27,-1
 292 149 l 1,28,-1
 146 149 l 1,29,-1
 0 149 l 1,0,-1
EndSplineSet
EndChar

StartChar: F
Encoding: 70 70 41
Width: 731
GlyphClass: 1
Flags: W
LayerCount: 2
Fore
SplineSet
0 149 m 1,0,-1
 0 295 l 1,1,-1
 0 441 l 1,2,-1
 0 587 l 1,3,-1
 0 733 l 1,4,-1
 0 880 l 1,5,-1
 146 880 l 1,6,-1
 292 880 l 1,7,-1
 438 880 l 1,8,-1
 584 880 l 1,9,-1
 584 733 l 1,10,-1
 438 733 l 1,11,-1
 292 733 l 1,12,-1
 146 733 l 1,13,-1
 146 587 l 1,14,-1
 292 587 l 1,15,-1
 438 587 l 1,16,-1
 584 587 l 1,17,-1
 584 441 l 1,18,-1
 438 441 l 1,19,-1
 292 441 l 1,20,-1
 146 441 l 1,21,-1
 146 295 l 1,22,-1
 146 149 l 1,23,-1
 0 149 l 1,0,-1
EndSplineSet
EndChar

StartChar: G
Encoding: 71 71 42
Width: 731
GlyphClass: 1
Flags: W
LayerCount: 2
Fore
SplineSet
0 295 m 1,0,-1
 0 441 l 1,1,-1
 0 587 l 1,2,-1
 0 733 l 1,3,-1
 146 733 l 1,4,-1
 146 587 l 1,5,-1
 146 441 l 1,6,-1
 146 295 l 1,7,-1
 0 295 l 1,0,-1
146 149 m 1,8,-1
 146 295 l 1,9,-1
 292 295 l 1,10,-1
 438 295 l 1,11,-1
 438 149 l 1,12,-1
 292 149 l 1,13,-1
 146 149 l 1,8,-1
292 441 m 1,14,-1
 292 587 l 1,15,-1
 438 587 l 1,16,-1
 584 587 l 1,17,-1
 584 441 l 1,18,-1
 584 295 l 1,19,-1
 438 295 l 1,20,-1
 438 441 l 1,21,-1
 292 441 l 1,14,-1
146 880 m 1,22,-1
 292 880 l 1,23,-1
 438 880 l 1,24,-1
 438 733 l 1,25,-1
 292 733 l 1,26,-1
 146 733 l 1,27,-1
 146 880 l 1,22,-1
EndSplineSet
EndChar

StartChar: H
Encoding: 72 72 43
Width: 731
GlyphClass: 1
Flags: W
LayerCount: 2
Fore
SplineSet
0 149 m 1,0,-1
 0 295 l 1,1,-1
 0 441 l 1,2,-1
 0 587 l 1,3,-1
 0 733 l 1,4,-1
 0 880 l 1,5,-1
 146 880 l 1,6,-1
 146 733 l 1,7,-1
 146 587 l 1,8,-1
 292 587 l 1,9,-1
 438 587 l 1,10,-1
 438 733 l 1,11,-1
 438 880 l 1,12,-1
 584 880 l 1,13,-1
 584 733 l 1,14,-1
 584 587 l 1,15,-1
 584 441 l 1,16,-1
 584 295 l 1,17,-1
 584 149 l 1,18,-1
 438 149 l 1,19,-1
 438 295 l 1,20,-1
 438 441 l 1,21,-1
 292 441 l 1,22,-1
 146 441 l 1,23,-1
 146 295 l 1,24,-1
 146 149 l 1,25,-1
 0 149 l 1,0,-1
EndSplineSet
EndChar

StartChar: I
Encoding: 73 73 44
Width: 584
GlyphClass: 1
Flags: W
LayerCount: 2
Fore
SplineSet
0 149 m 1,0,-1
 0 295 l 1,1,-1
 146 295 l 1,2,-1
 146 441 l 1,3,-1
 146 587 l 1,4,-1
 146 733 l 1,5,-1
 0 733 l 1,6,-1
 0 880 l 1,7,-1
 146 880 l 1,8,-1
 292 880 l 1,9,-1
 438 880 l 1,10,-1
 438 733 l 1,11,-1
 292 733 l 1,12,-1
 292 587 l 1,13,-1
 292 441 l 1,14,-1
 292 295 l 1,15,-1
 438 295 l 1,16,-1
 438 149 l 1,17,-1
 292 149 l 1,18,-1
 146 149 l 1,19,-1
 0 149 l 1,0,-1
EndSplineSet
EndChar

StartChar: J
Encoding: 74 74 45
Width: 731
GlyphClass: 1
Flags: W
LayerCount: 2
Fore
SplineSet
0 295 m 1,0,-1
 0 441 l 1,1,-1
 146 441 l 1,2,-1
 146 295 l 1,3,-1
 0 295 l 1,0,-1
146 149 m 1,4,-1
 146 295 l 1,5,-1
 292 295 l 1,6,-1
 438 295 l 1,7,-1
 438 149 l 1,8,-1
 292 149 l 1,9,-1
 146 149 l 1,4,-1
584 295 m 1,10,-1
 438 295 l 1,11,-1
 438 441 l 1,12,-1
 438 587 l 1,13,-1
 438 733 l 1,14,-1
 438 880 l 1,15,-1
 584 880 l 1,16,-1
 584 733 l 1,17,-1
 584 587 l 1,18,-1
 584 441 l 1,19,-1
 584 295 l 1,10,-1
EndSplineSet
EndChar

StartChar: K
Encoding: 75 75 46
Width: 731
GlyphClass: 1
Flags: W
LayerCount: 2
Fore
SplineSet
0 149 m 1,0,-1
 0 295 l 1,1,-1
 0 441 l 1,2,-1
 0 587 l 1,3,-1
 0 733 l 1,4,-1
 0 880 l 1,5,-1
 146 880 l 1,6,-1
 146 733 l 1,7,-1
 146 587 l 1,8,-1
 292 587 l 1,9,-1
 292 441 l 1,10,-1
 146 441 l 1,11,-1
 146 295 l 1,12,-1
 146 149 l 1,13,-1
 0 149 l 1,0,-1
292 295 m 1,14,-1
 292 441 l 1,15,-1
 438 441 l 1,16,-1
 438 295 l 1,17,-1
 292 295 l 1,14,-1
438 149 m 1,18,-1
 438 295 l 1,19,-1
 584 295 l 1,20,-1
 584 149 l 1,21,-1
 438 149 l 1,18,-1
292 733 m 1,22,-1
 438 733 l 1,23,-1
 438 587 l 1,24,-1
 292 587 l 1,25,-1
 292 733 l 1,22,-1
438 880 m 1,26,-1
 584 880 l 1,27,-1
 584 733 l 1,28,-1
 438 733 l 1,29,-1
 438 880 l 1,26,-1
EndSplineSet
EndChar

StartChar: L
Encoding: 76 76 47
Width: 731
GlyphClass: 1
Flags: W
LayerCount: 2
Fore
SplineSet
0 149 m 1,0,-1
 0 295 l 1,1,-1
 0 441 l 1,2,-1
 0 587 l 1,3,-1
 0 733 l 1,4,-1
 0 880 l 1,5,-1
 146 880 l 1,6,-1
 146 733 l 1,7,-1
 146 587 l 1,8,-1
 146 441 l 1,9,-1
 146 295 l 1,10,-1
 292 295 l 1,11,-1
 438 295 l 1,12,-1
 584 295 l 1,13,-1
 584 149 l 1,14,-1
 438 149 l 1,15,-1
 292 149 l 1,16,-1
 146 149 l 1,17,-1
 0 149 l 1,0,-1
EndSplineSet
EndChar

StartChar: M
Encoding: 77 77 48
Width: 877
GlyphClass: 1
Flags: W
LayerCount: 2
Fore
SplineSet
0 149 m 1,0,-1
 0 295 l 1,1,-1
 0 441 l 1,2,-1
 0 587 l 1,3,-1
 0 733 l 1,4,-1
 0 880 l 1,5,-1
 146 880 l 1,6,-1
 146 733 l 1,7,-1
 292 733 l 1,8,-1
 292 587 l 1,9,-1
 146 587 l 1,10,-1
 146 441 l 1,11,-1
 146 295 l 1,12,-1
 146 149 l 1,13,-1
 0 149 l 1,0,-1
292 441 m 1,14,-1
 292 587 l 1,15,-1
 438 587 l 1,16,-1
 438 441 l 1,17,-1
 292 441 l 1,14,-1
584 149 m 1,18,-1
 584 295 l 1,19,-1
 584 441 l 1,20,-1
 584 587 l 1,21,-1
 438 587 l 1,22,-1
 438 733 l 1,23,-1
 584 733 l 1,24,-1
 584 880 l 1,25,-1
 730 880 l 1,26,-1
 730 733 l 1,27,-1
 730 587 l 1,28,-1
 730 441 l 1,29,-1
 730 295 l 1,30,-1
 730 149 l 1,31,-1
 584 149 l 1,18,-1
EndSplineSet
EndChar

StartChar: N
Encoding: 78 78 49
Width: 731
GlyphClass: 1
Flags: W
LayerCount: 2
Fore
SplineSet
0 149 m 1,0,-1
 0 295 l 1,1,-1
 0 441 l 1,2,-1
 0 587 l 1,3,-1
 0 733 l 1,4,-1
 0 880 l 1,5,-1
 146 880 l 1,6,-1
 146 733 l 1,7,-1
 292 733 l 1,8,-1
 292 587 l 1,9,-1
 146 587 l 1,10,-1
 146 441 l 1,11,-1
 146 295 l 1,12,-1
 146 149 l 1,13,-1
 0 149 l 1,0,-1
292 441 m 1,14,-1
 292 587 l 1,15,-1
 438 587 l 1,16,-1
 438 733 l 1,17,-1
 438 880 l 1,18,-1
 584 880 l 1,19,-1
 584 733 l 1,20,-1
 584 587 l 1,21,-1
 584 441 l 1,22,-1
 584 295 l 1,23,-1
 584 149 l 1,24,-1
 438 149 l 1,25,-1
 438 295 l 1,26,-1
 438 441 l 1,27,-1
 292 441 l 1,14,-1
EndSplineSet
EndChar

StartChar: O
Encoding: 79 79 50
Width: 731
GlyphClass: 1
Flags: W
LayerCount: 2
Fore
SplineSet
0 295 m 1,0,-1
 0 441 l 1,1,-1
 0 587 l 1,2,-1
 0 733 l 1,3,-1
 146 733 l 1,4,-1
 146 587 l 1,5,-1
 146 441 l 1,6,-1
 146 295 l 1,7,-1
 0 295 l 1,0,-1
146 149 m 1,8,-1
 146 295 l 1,9,-1
 292 295 l 1,10,-1
 438 295 l 1,11,-1
 438 149 l 1,12,-1
 292 149 l 1,13,-1
 146 149 l 1,8,-1
146 880 m 1,14,-1
 292 880 l 1,15,-1
 438 880 l 1,16,-1
 438 733 l 1,17,-1
 292 733 l 1,18,-1
 146 733 l 1,19,-1
 146 880 l 1,14,-1
584 295 m 1,20,-1
 438 295 l 1,21,-1
 438 441 l 1,22,-1
 438 587 l 1,23,-1
 438 733 l 1,24,-1
 584 733 l 1,25,-1
 584 587 l 1,26,-1
 584 441 l 1,27,-1
 584 295 l 1,20,-1
EndSplineSet
EndChar

StartChar: P
Encoding: 80 80 51
Width: 731
GlyphClass: 1
Flags: W
LayerCount: 2
Fore
SplineSet
0 149 m 1,0,-1
 0 295 l 1,1,-1
 0 441 l 1,2,-1
 0 587 l 1,3,-1
 0 733 l 1,4,-1
 0 880 l 1,5,-1
 146 880 l 1,6,-1
 292 880 l 1,7,-1
 438 880 l 1,8,-1
 438 733 l 1,9,-1
 292 733 l 1,10,-1
 146 733 l 1,11,-1
 146 587 l 1,12,-1
 292 587 l 1,13,-1
 438 587 l 1,14,-1
 438 441 l 1,15,-1
 292 441 l 1,16,-1
 146 441 l 1,17,-1
 146 295 l 1,18,-1
 146 149 l 1,19,-1
 0 149 l 1,0,-1
584 733 m 1,20,-1
 584 587 l 1,21,-1
 438 587 l 1,22,-1
 438 733 l 1,23,-1
 584 733 l 1,20,-1
EndSplineSet
EndChar

StartChar: Q
Encoding: 81 81 52
Width: 731
GlyphClass: 1
Flags: W
LayerCount: 2
Fore
SplineSet
0 295 m 1,0,-1
 0 441 l 1,1,-1
 0 587 l 1,2,-1
 0 733 l 1,3,-1
 146 733 l 1,4,-1
 146 587 l 1,5,-1
 146 441 l 1,6,-1
 146 295 l 1,7,-1
 0 295 l 1,0,-1
146 149 m 1,8,-1
 146 295 l 1,9,-1
 292 295 l 1,10,-1
 292 441 l 1,11,-1
 438 441 l 1,12,-1
 438 587 l 1,13,-1
 438 733 l 1,14,-1
 584 733 l 1,15,-1
 584 587 l 1,16,-1
 584 441 l 1,17,-1
 584 295 l 1,18,-1
 584 149 l 1,19,-1
 438 149 l 1,20,-1
 292 149 l 1,21,-1
 146 149 l 1,8,-1
146 880 m 1,22,-1
 292 880 l 1,23,-1
 438 880 l 1,24,-1
 438 733 l 1,25,-1
 292 733 l 1,26,-1
 146 733 l 1,27,-1
 146 880 l 1,22,-1
EndSplineSet
EndChar

StartChar: R
Encoding: 82 82 53
Width: 731
GlyphClass: 1
Flags: W
LayerCount: 2
Fore
SplineSet
0 149 m 1,0,-1
 0 295 l 1,1,-1
 0 441 l 1,2,-1
 0 587 l 1,3,-1
 0 733 l 1,4,-1
 0 880 l 1,5,-1
 146 880 l 1,6,-1
 292 880 l 1,7,-1
 438 880 l 1,8,-1
 438 733 l 1,9,-1
 292 733 l 1,10,-1
 146 733 l 1,11,-1
 146 587 l 1,12,-1
 292 587 l 1,13,-1
 438 587 l 1,14,-1
 438 441 l 1,15,-1
 292 441 l 1,16,-1
 146 441 l 1,17,-1
 146 295 l 1,18,-1
 146 149 l 1,19,-1
 0 149 l 1,0,-1
438 149 m 1,20,-1
 438 295 l 1,21,-1
 438 441 l 1,22,-1
 584 441 l 1,23,-1
 584 295 l 1,24,-1
 584 149 l 1,25,-1
 438 149 l 1,20,-1
584 733 m 1,26,-1
 584 587 l 1,27,-1
 438 587 l 1,28,-1
 438 733 l 1,29,-1
 584 733 l 1,26,-1
EndSplineSet
EndChar

StartChar: S
Encoding: 83 83 54
Width: 731
GlyphClass: 1
Flags: W
LayerCount: 2
Fore
SplineSet
0 149 m 1,0,-1
 0 295 l 1,1,-1
 146 295 l 1,2,-1
 292 295 l 1,3,-1
 438 295 l 1,4,-1
 438 149 l 1,5,-1
 292 149 l 1,6,-1
 146 149 l 1,7,-1
 0 149 l 1,0,-1
0 587 m 1,8,-1
 0 733 l 1,9,-1
 146 733 l 1,10,-1
 146 587 l 1,11,-1
 0 587 l 1,8,-1
146 441 m 1,12,-1
 146 587 l 1,13,-1
 292 587 l 1,14,-1
 438 587 l 1,15,-1
 438 441 l 1,16,-1
 292 441 l 1,17,-1
 146 441 l 1,12,-1
146 880 m 1,18,-1
 292 880 l 1,19,-1
 438 880 l 1,20,-1
 584 880 l 1,21,-1
 584 733 l 1,22,-1
 438 733 l 1,23,-1
 292 733 l 1,24,-1
 146 733 l 1,25,-1
 146 880 l 1,18,-1
584 441 m 1,26,-1
 584 295 l 1,27,-1
 438 295 l 1,28,-1
 438 441 l 1,29,-1
 584 441 l 1,26,-1
EndSplineSet
EndChar

StartChar: T
Encoding: 84 84 55
Width: 584
GlyphClass: 1
Flags: W
LayerCount: 2
Fore
SplineSet
0 733 m 1,0,-1
 0 880 l 1,1,-1
 146 880 l 1,2,-1
 292 880 l 1,3,-1
 438 880 l 1,4,-1
 438 733 l 1,5,-1
 292 733 l 1,6,-1
 292 587 l 1,7,-1
 292 441 l 1,8,-1
 292 295 l 1,9,-1
 292 149 l 1,10,-1
 146 149 l 1,11,-1
 146 295 l 1,12,-1
 146 441 l 1,13,-1
 146 587 l 1,14,-1
 146 733 l 1,15,-1
 0 733 l 1,0,-1
EndSplineSet
EndChar

StartChar: U
Encoding: 85 85 56
Width: 731
GlyphClass: 1
Flags: W
LayerCount: 2
Fore
SplineSet
0 295 m 1,0,-1
 0 441 l 1,1,-1
 0 587 l 1,2,-1
 0 733 l 1,3,-1
 0 880 l 1,4,-1
 146 880 l 1,5,-1
 146 733 l 1,6,-1
 146 587 l 1,7,-1
 146 441 l 1,8,-1
 146 295 l 1,9,-1
 0 295 l 1,0,-1
146 149 m 1,10,-1
 146 295 l 1,11,-1
 292 295 l 1,12,-1
 438 295 l 1,13,-1
 438 149 l 1,14,-1
 292 149 l 1,15,-1
 146 149 l 1,10,-1
584 295 m 1,16,-1
 438 295 l 1,17,-1
 438 441 l 1,18,-1
 438 587 l 1,19,-1
 438 733 l 1,20,-1
 438 880 l 1,21,-1
 584 880 l 1,22,-1
 584 733 l 1,23,-1
 584 587 l 1,24,-1
 584 441 l 1,25,-1
 584 295 l 1,16,-1
EndSplineSet
EndChar

StartChar: V
Encoding: 86 86 57
Width: 877
GlyphClass: 1
Flags: W
LayerCount: 2
Fore
SplineSet
0 441 m 1,0,-1
 0 587 l 1,1,-1
 0 733 l 1,2,-1
 0 880 l 1,3,-1
 146 880 l 1,4,-1
 146 733 l 1,5,-1
 146 587 l 1,6,-1
 146 441 l 1,7,-1
 0 441 l 1,0,-1
146 295 m 1,8,-1
 146 441 l 1,9,-1
 292 441 l 1,10,-1
 292 295 l 1,11,-1
 146 295 l 1,8,-1
292 149 m 1,12,-1
 292 295 l 1,13,-1
 438 295 l 1,14,-1
 438 149 l 1,15,-1
 292 149 l 1,12,-1
438 441 m 1,16,-1
 584 441 l 1,17,-1
 584 295 l 1,18,-1
 438 295 l 1,19,-1
 438 441 l 1,16,-1
730 441 m 1,20,-1
 584 441 l 1,21,-1
 584 587 l 1,22,-1
 584 733 l 1,23,-1
 584 880 l 1,24,-1
 730 880 l 1,25,-1
 730 733 l 1,26,-1
 730 587 l 1,27,-1
 730 441 l 1,20,-1
EndSplineSet
EndChar

StartChar: W
Encoding: 87 87 58
Width: 877
GlyphClass: 1
Flags: W
LayerCount: 2
Fore
SplineSet
0 295 m 1,0,-1
 0 441 l 1,1,-1
 0 587 l 1,2,-1
 0 733 l 1,3,-1
 0 880 l 1,4,-1
 146 880 l 1,5,-1
 146 733 l 1,6,-1
 146 587 l 1,7,-1
 146 441 l 1,8,-1
 146 295 l 1,9,-1
 0 295 l 1,0,-1
146 149 m 1,10,-1
 146 295 l 1,11,-1
 292 295 l 1,12,-1
 292 149 l 1,13,-1
 146 149 l 1,10,-1
438 149 m 1,14,-1
 438 295 l 1,15,-1
 584 295 l 1,16,-1
 584 149 l 1,17,-1
 438 149 l 1,14,-1
292 733 m 1,18,-1
 438 733 l 1,19,-1
 438 587 l 1,20,-1
 438 441 l 1,21,-1
 438 295 l 1,22,-1
 292 295 l 1,23,-1
 292 441 l 1,24,-1
 292 587 l 1,25,-1
 292 733 l 1,18,-1
730 295 m 1,26,-1
 584 295 l 1,27,-1
 584 441 l 1,28,-1
 584 587 l 1,29,-1
 584 733 l 1,30,-1
 584 880 l 1,31,-1
 730 880 l 1,32,-1
 730 733 l 1,33,-1
 730 587 l 1,34,-1
 730 441 l 1,35,-1
 730 295 l 1,26,-1
EndSplineSet
EndChar

StartChar: X
Encoding: 88 88 59
Width: 731
GlyphClass: 1
Flags: W
LayerCount: 2
Fore
SplineSet
0 149 m 1,0,-1
 0 295 l 1,1,-1
 0 441 l 1,2,-1
 146 441 l 1,3,-1
 146 295 l 1,4,-1
 146 149 l 1,5,-1
 0 149 l 1,0,-1
0 587 m 1,6,-1
 0 733 l 1,7,-1
 0 880 l 1,8,-1
 146 880 l 1,9,-1
 146 733 l 1,10,-1
 146 587 l 1,11,-1
 0 587 l 1,6,-1
438 149 m 1,12,-1
 438 295 l 1,13,-1
 438 441 l 1,14,-1
 584 441 l 1,15,-1
 584 295 l 1,16,-1
 584 149 l 1,17,-1
 438 149 l 1,12,-1
584 587 m 1,18,-1
 438 587 l 1,19,-1
 438 733 l 1,20,-1
 438 880 l 1,21,-1
 584 880 l 1,22,-1
 584 733 l 1,23,-1
 584 587 l 1,18,-1
146 441 m 1,24,-1
 146 587 l 1,25,-1
 292 587 l 1,26,-1
 438 587 l 1,27,-1
 438 441 l 1,28,-1
 292 441 l 1,29,-1
 146 441 l 1,24,-1
EndSplineSet
EndChar

StartChar: Y
Encoding: 89 89 60
Width: 877
GlyphClass: 1
Flags: W
LayerCount: 2
Fore
SplineSet
0 733 m 1,0,-1
 0 880 l 1,1,-1
 146 880 l 1,2,-1
 146 733 l 1,3,-1
 0 733 l 1,0,-1
146 587 m 1,4,-1
 146 733 l 1,5,-1
 292 733 l 1,6,-1
 292 587 l 1,7,-1
 146 587 l 1,4,-1
292 149 m 1,8,-1
 292 295 l 1,9,-1
 292 441 l 1,10,-1
 292 587 l 1,11,-1
 438 587 l 1,12,-1
 438 441 l 1,13,-1
 438 295 l 1,14,-1
 438 149 l 1,15,-1
 292 149 l 1,8,-1
438 733 m 1,16,-1
 584 733 l 1,17,-1
 584 587 l 1,18,-1
 438 587 l 1,19,-1
 438 733 l 1,16,-1
584 880 m 1,20,-1
 730 880 l 1,21,-1
 730 733 l 1,22,-1
 584 733 l 1,23,-1
 584 880 l 1,20,-1
EndSplineSet
EndChar

StartChar: Z
Encoding: 90 90 61
Width: 584
GlyphClass: 1
Flags: W
LayerCount: 2
Fore
SplineSet
0 149 m 1,0,-1
 0 295 l 1,1,-1
 0 441 l 1,2,-1
 146 441 l 1,3,-1
 146 295 l 1,4,-1
 292 295 l 1,5,-1
 438 295 l 1,6,-1
 438 149 l 1,7,-1
 292 149 l 1,8,-1
 146 149 l 1,9,-1
 0 149 l 1,0,-1
0 733 m 1,10,-1
 0 880 l 1,11,-1
 146 880 l 1,12,-1
 292 880 l 1,13,-1
 438 880 l 1,14,-1
 438 733 l 1,15,-1
 438 587 l 1,16,-1
 292 587 l 1,17,-1
 292 733 l 1,18,-1
 146 733 l 1,19,-1
 0 733 l 1,10,-1
146 587 m 1,20,-1
 292 587 l 1,21,-1
 292 441 l 1,22,-1
 146 441 l 1,23,-1
 146 587 l 1,20,-1
EndSplineSet
EndChar

StartChar: bracketleft
Encoding: 91 91 62
Width: 438
GlyphClass: 1
Flags: W
LayerCount: 2
Fore
SplineSet
0 149 m 1,0,-1
 0 295 l 1,1,-1
 0 441 l 1,2,-1
 0 587 l 1,3,-1
 0 733 l 1,4,-1
 0 880 l 1,5,-1
 146 880 l 1,6,-1
 292 880 l 1,7,-1
 292 733 l 1,8,-1
 146 733 l 1,9,-1
 146 587 l 1,10,-1
 146 441 l 1,11,-1
 146 295 l 1,12,-1
 292 295 l 1,13,-1
 292 149 l 1,14,-1
 146 149 l 1,15,-1
 0 149 l 1,0,-1
EndSplineSet
EndChar

StartChar: backslash
Encoding: 92 92 63
Width: 584
GlyphClass: 1
Flags: W
LayerCount: 2
Fore
SplineSet
438 149 m 5,0,-1
 438 295 l 5,1,-1
 438 441 l 5,2,-1
 292 441 l 5,3,-1
 292 295 l 5,4,-1
 292 149 l 5,5,-1
 438 149 l 5,0,-1
292 587 m 5,6,-1
 146 587 l 5,7,-1
 146 441 l 5,8,-1
 292 441 l 5,9,-1
 292 587 l 5,6,-1
0 587 m 5,10,-1
 146 587 l 5,11,-1
 146 733 l 5,12,-1
 146 880 l 5,13,-1
 0 880 l 5,14,-1
 0 733 l 5,15,-1
 0 587 l 5,10,-1
EndSplineSet
EndChar

StartChar: bracketright
Encoding: 93 93 64
Width: 438
GlyphClass: 1
Flags: W
LayerCount: 2
Fore
SplineSet
0 149 m 1,0,-1
 0 295 l 1,1,-1
 146 295 l 1,2,-1
 146 441 l 1,3,-1
 146 587 l 1,4,-1
 146 733 l 1,5,-1
 0 733 l 1,6,-1
 0 880 l 1,7,-1
 146 880 l 1,8,-1
 292 880 l 1,9,-1
 292 733 l 1,10,-1
 292 587 l 1,11,-1
 292 441 l 1,12,-1
 292 295 l 1,13,-1
 292 149 l 1,14,-1
 146 149 l 1,15,-1
 0 149 l 1,0,-1
EndSplineSet
EndChar

StartChar: asciicircum
Encoding: 94 94 65
Width: 584
GlyphClass: 1
Flags: W
LayerCount: 2
Fore
SplineSet
0 587 m 1,0,-1
 0 733 l 1,1,-1
 146 733 l 1,2,-1
 146 587 l 1,3,-1
 0 587 l 1,0,-1
292 587 m 1,4,-1
 292 733 l 1,5,-1
 438 733 l 1,6,-1
 438 587 l 1,7,-1
 292 587 l 1,4,-1
146 880 m 1,8,-1
 292 880 l 1,9,-1
 292 733 l 1,10,-1
 146 733 l 1,11,-1
 146 880 l 1,8,-1
EndSplineSet
EndChar

StartChar: underscore
Encoding: 95 95 66
Width: 731
GlyphClass: 1
Flags: W
LayerCount: 2
Fore
SplineSet
0 149 m 1,0,-1
 0 295 l 1,1,-1
 146 295 l 1,2,-1
 292 295 l 1,3,-1
 438 295 l 1,4,-1
 584 295 l 1,5,-1
 584 149 l 1,6,-1
 438 149 l 1,7,-1
 292 149 l 1,8,-1
 146 149 l 1,9,-1
 0 149 l 1,0,-1
EndSplineSet
EndChar

StartChar: grave
Encoding: 96 96 67
Width: 438
GlyphClass: 1
Flags: W
LayerCount: 2
Fore
SplineSet
0 733 m 1,0,-1
 0 880 l 1,1,-1
 146 880 l 1,2,-1
 146 733 l 1,3,-1
 0 733 l 1,0,-1
146 587 m 1,4,-1
 146 733 l 1,5,-1
 292 733 l 1,6,-1
 292 587 l 1,7,-1
 146 587 l 1,4,-1
EndSplineSet
EndChar

StartChar: a
Encoding: 97 97 68
Width: 877
GlyphClass: 1
Flags: W
LayerCount: 2
Fore
SplineSet
0 295 m 1,0,-1
 0 441 l 1,1,-1
 0 587 l 1,2,-1
 146 587 l 1,3,-1
 146 441 l 1,4,-1
 146 295 l 1,5,-1
 0 295 l 1,0,-1
146 149 m 1,6,-1
 146 295 l 1,7,-1
 292 295 l 1,8,-1
 438 295 l 1,9,-1
 438 441 l 1,10,-1
 438 587 l 1,11,-1
 292 587 l 1,12,-1
 146 587 l 1,13,-1
 146 733 l 1,14,-1
 292 733 l 1,15,-1
 438 733 l 1,16,-1
 584 733 l 1,17,-1
 584 587 l 1,18,-1
 584 441 l 1,19,-1
 584 295 l 1,20,-1
 730 295 l 1,21,-1
 730 149 l 1,22,-1
 584 149 l 1,23,-1
 438 149 l 1,24,-1
 292 149 l 1,25,-1
 146 149 l 1,6,-1
EndSplineSet
EndChar

StartChar: b
Encoding: 98 98 69
Width: 731
GlyphClass: 1
Flags: W
LayerCount: 2
Fore
SplineSet
0 149 m 1,0,-1
 0 295 l 1,1,-1
 0 441 l 1,2,-1
 0 587 l 1,3,-1
 0 733 l 1,4,-1
 0 880 l 1,5,-1
 146 880 l 1,6,-1
 146 733 l 1,7,-1
 292 733 l 1,8,-1
 438 733 l 1,9,-1
 438 587 l 1,10,-1
 292 587 l 1,11,-1
 146 587 l 1,12,-1
 146 441 l 1,13,-1
 146 295 l 1,14,-1
 292 295 l 1,15,-1
 438 295 l 1,16,-1
 438 149 l 1,17,-1
 292 149 l 1,18,-1
 146 149 l 1,19,-1
 0 149 l 1,0,-1
584 295 m 1,20,-1
 438 295 l 1,21,-1
 438 441 l 1,22,-1
 438 587 l 1,23,-1
 584 587 l 1,24,-1
 584 441 l 1,25,-1
 584 295 l 1,20,-1
EndSplineSet
EndChar

StartChar: c
Encoding: 99 99 70
Width: 584
GlyphClass: 1
Flags: W
LayerCount: 2
Fore
SplineSet
0 295 m 1,0,-1
 0 441 l 1,1,-1
 0 587 l 1,2,-1
 146 587 l 1,3,-1
 146 441 l 1,4,-1
 146 295 l 1,5,-1
 0 295 l 1,0,-1
146 149 m 1,6,-1
 146 295 l 1,7,-1
 292 295 l 1,8,-1
 438 295 l 1,9,-1
 438 149 l 1,10,-1
 292 149 l 1,11,-1
 146 149 l 1,6,-1
146 733 m 1,12,-1
 292 733 l 1,13,-1
 438 733 l 1,14,-1
 438 587 l 1,15,-1
 292 587 l 1,16,-1
 146 587 l 1,17,-1
 146 733 l 1,12,-1
EndSplineSet
EndChar

StartChar: d
Encoding: 100 100 71
Width: 731
GlyphClass: 1
Flags: W
LayerCount: 2
Fore
SplineSet
0 295 m 1,0,-1
 0 441 l 1,1,-1
 0 587 l 1,2,-1
 146 587 l 1,3,-1
 146 441 l 1,4,-1
 146 295 l 1,5,-1
 0 295 l 1,0,-1
146 149 m 1,6,-1
 146 295 l 1,7,-1
 292 295 l 1,8,-1
 438 295 l 1,9,-1
 438 441 l 1,10,-1
 438 587 l 1,11,-1
 292 587 l 1,12,-1
 146 587 l 1,13,-1
 146 733 l 1,14,-1
 292 733 l 1,15,-1
 438 733 l 1,16,-1
 438 880 l 1,17,-1
 584 880 l 1,18,-1
 584 733 l 1,19,-1
 584 587 l 1,20,-1
 584 441 l 1,21,-1
 584 295 l 1,22,-1
 584 149 l 1,23,-1
 438 149 l 1,24,-1
 292 149 l 1,25,-1
 146 149 l 1,6,-1
EndSplineSet
EndChar

StartChar: e
Encoding: 101 101 72
Width: 731
GlyphClass: 1
Flags: W
LayerCount: 2
Fore
SplineSet
0 295 m 1,0,-1
 0 441 l 1,1,-1
 0 587 l 1,2,-1
 146 587 l 1,3,-1
 146 441 l 1,4,-1
 292 441 l 1,5,-1
 292 295 l 1,6,-1
 438 295 l 1,7,-1
 584 295 l 1,8,-1
 584 149 l 1,9,-1
 438 149 l 1,10,-1
 292 149 l 1,11,-1
 146 149 l 1,12,-1
 146 295 l 1,13,-1
 0 295 l 1,0,-1
146 733 m 1,14,-1
 292 733 l 1,15,-1
 438 733 l 1,16,-1
 438 587 l 1,17,-1
 584 587 l 1,18,-1
 584 441 l 1,19,-1
 438 441 l 1,20,-1
 292 441 l 1,21,-1
 292 587 l 1,22,-1
 146 587 l 1,23,-1
 146 733 l 1,14,-1
EndSplineSet
EndChar

StartChar: f
Encoding: 102 102 73
Width: 731
GlyphClass: 1
Flags: W
LayerCount: 2
Fore
SplineSet
0 441 m 1,0,-1
 0 587 l 1,1,-1
 146 587 l 1,2,-1
 146 733 l 1,3,-1
 292 733 l 1,4,-1
 292 587 l 1,5,-1
 438 587 l 1,6,-1
 584 587 l 1,7,-1
 584 441 l 1,8,-1
 438 441 l 1,9,-1
 292 441 l 1,10,-1
 292 295 l 1,11,-1
 292 149 l 1,12,-1
 146 149 l 1,13,-1
 146 295 l 1,14,-1
 146 441 l 1,15,-1
 0 441 l 1,0,-1
292 880 m 1,16,-1
 438 880 l 1,17,-1
 584 880 l 1,18,-1
 584 733 l 1,19,-1
 438 733 l 1,20,-1
 292 733 l 1,21,-1
 292 880 l 1,16,-1
EndSplineSet
EndChar

StartChar: g
Encoding: 103 103 74
Width: 731
GlyphClass: 1
Flags: W
LayerCount: 2
Fore
SplineSet
0 295 m 1,0,-1
 0 441 l 1,1,-1
 0 587 l 1,2,-1
 146 587 l 1,3,-1
 146 441 l 1,4,-1
 146 295 l 1,5,-1
 0 295 l 1,0,-1
146 -144 m 1,6,-1
 146 3 l 1,7,-1
 292 3 l 1,8,-1
 438 3 l 1,9,-1
 438 -144 l 1,10,-1
 292 -144 l 1,11,-1
 146 -144 l 1,6,-1
146 149 m 1,12,-1
 146 295 l 1,13,-1
 292 295 l 1,14,-1
 438 295 l 1,15,-1
 438 441 l 1,16,-1
 438 587 l 1,17,-1
 584 587 l 1,18,-1
 584 441 l 1,19,-1
 584 295 l 1,20,-1
 584 149 l 1,21,-1
 584 3 l 1,22,-1
 438 3 l 1,23,-1
 438 149 l 1,24,-1
 292 149 l 1,25,-1
 146 149 l 1,12,-1
146 733 m 1,26,-1
 292 733 l 1,27,-1
 438 733 l 1,28,-1
 438 587 l 1,29,-1
 292 587 l 1,30,-1
 146 587 l 1,31,-1
 146 733 l 1,26,-1
EndSplineSet
EndChar

StartChar: h
Encoding: 104 104 75
Width: 731
GlyphClass: 1
Flags: W
LayerCount: 2
Fore
SplineSet
0 149 m 1,0,-1
 0 295 l 1,1,-1
 0 441 l 1,2,-1
 0 587 l 1,3,-1
 0 733 l 1,4,-1
 0 880 l 1,5,-1
 146 880 l 1,6,-1
 146 733 l 1,7,-1
 292 733 l 1,8,-1
 438 733 l 1,9,-1
 438 587 l 1,10,-1
 292 587 l 1,11,-1
 146 587 l 1,12,-1
 146 441 l 1,13,-1
 146 295 l 1,14,-1
 146 149 l 1,15,-1
 0 149 l 1,0,-1
438 149 m 1,16,-1
 438 295 l 1,17,-1
 438 441 l 1,18,-1
 438 587 l 1,19,-1
 584 587 l 1,20,-1
 584 441 l 1,21,-1
 584 295 l 1,22,-1
 584 149 l 1,23,-1
 438 149 l 1,16,-1
EndSplineSet
EndChar

StartChar: i
Encoding: 105 105 76
Width: 292
GlyphClass: 1
Flags: W
LayerCount: 2
Fore
SplineSet
0 149 m 1,0,-1
 0 295 l 1,1,-1
 0 441 l 1,2,-1
 0 587 l 1,3,-1
 146 587 l 1,4,-1
 146 441 l 1,5,-1
 146 295 l 1,6,-1
 146 149 l 1,7,-1
 0 149 l 1,0,-1
0 733 m 1,8,-1
 0 880 l 1,9,-1
 146 880 l 1,10,-1
 146 733 l 1,11,-1
 0 733 l 1,8,-1
EndSplineSet
EndChar

StartChar: j
Encoding: 106 106 77
Width: 438
GlyphClass: 1
Flags: W
LayerCount: 2
Fore
SplineSet
0 -144 m 1,0,-1
 0 3 l 1,1,-1
 146 3 l 1,2,-1
 146 -144 l 1,3,-1
 0 -144 l 1,0,-1
146 733 m 1,4,-1
 146 880 l 1,5,-1
 292 880 l 1,6,-1
 292 733 l 1,7,-1
 146 733 l 1,4,-1
292 3 m 1,8,-1
 146 3 l 1,9,-1
 146 149 l 1,10,-1
 146 295 l 1,11,-1
 146 441 l 1,12,-1
 146 587 l 1,13,-1
 292 587 l 1,14,-1
 292 441 l 1,15,-1
 292 295 l 1,16,-1
 292 149 l 1,17,-1
 292 3 l 1,8,-1
EndSplineSet
EndChar

StartChar: k
Encoding: 107 107 78
Width: 731
GlyphClass: 1
Flags: W
LayerCount: 2
Fore
SplineSet
0 149 m 1,0,-1
 0 295 l 1,1,-1
 0 441 l 1,2,-1
 0 587 l 1,3,-1
 0 733 l 1,4,-1
 0 880 l 1,5,-1
 146 880 l 1,6,-1
 146 733 l 1,7,-1
 146 587 l 1,8,-1
 292 587 l 1,9,-1
 438 587 l 1,10,-1
 438 441 l 1,11,-1
 292 441 l 1,12,-1
 146 441 l 1,13,-1
 146 295 l 1,14,-1
 146 149 l 1,15,-1
 0 149 l 1,0,-1
438 149 m 1,16,-1
 438 295 l 1,17,-1
 438 441 l 1,18,-1
 584 441 l 1,19,-1
 584 295 l 1,20,-1
 584 149 l 1,21,-1
 438 149 l 1,16,-1
438 733 m 1,22,-1
 584 733 l 1,23,-1
 584 587 l 1,24,-1
 438 587 l 1,25,-1
 438 733 l 1,22,-1
EndSplineSet
EndChar

StartChar: l
Encoding: 108 108 79
Width: 292
GlyphClass: 1
Flags: W
LayerCount: 2
Fore
SplineSet
0 149 m 1,0,-1
 0 295 l 1,1,-1
 0 441 l 1,2,-1
 0 587 l 1,3,-1
 0 733 l 1,4,-1
 0 880 l 1,5,-1
 146 880 l 1,6,-1
 146 733 l 1,7,-1
 146 587 l 1,8,-1
 146 441 l 1,9,-1
 146 295 l 1,10,-1
 146 149 l 1,11,-1
 0 149 l 1,0,-1
EndSplineSet
EndChar

StartChar: m
Encoding: 109 109 80
Width: 877
GlyphClass: 1
Flags: W
LayerCount: 2
Fore
SplineSet
0 149 m 1,0,-1
 0 295 l 1,1,-1
 0 441 l 1,2,-1
 0 587 l 1,3,-1
 0 733 l 1,4,-1
 146 733 l 1,5,-1
 292 733 l 1,6,-1
 438 733 l 1,7,-1
 584 733 l 1,8,-1
 584 587 l 1,9,-1
 438 587 l 1,10,-1
 438 441 l 1,11,-1
 438 295 l 1,12,-1
 438 149 l 1,13,-1
 292 149 l 1,14,-1
 292 295 l 1,15,-1
 292 441 l 1,16,-1
 292 587 l 1,17,-1
 146 587 l 1,18,-1
 146 441 l 1,19,-1
 146 295 l 1,20,-1
 146 149 l 1,21,-1
 0 149 l 1,0,-1
584 149 m 1,22,-1
 584 295 l 1,23,-1
 584 441 l 1,24,-1
 584 587 l 1,25,-1
 730 587 l 1,26,-1
 730 441 l 1,27,-1
 730 295 l 1,28,-1
 730 149 l 1,29,-1
 584 149 l 1,22,-1
EndSplineSet
EndChar

StartChar: n
Encoding: 110 110 81
Width: 731
GlyphClass: 1
Flags: W
LayerCount: 2
Fore
SplineSet
0 149 m 1,0,-1
 0 295 l 1,1,-1
 0 441 l 1,2,-1
 0 587 l 1,3,-1
 0 733 l 1,4,-1
 146 733 l 1,5,-1
 292 733 l 1,6,-1
 438 733 l 1,7,-1
 438 587 l 1,8,-1
 292 587 l 1,9,-1
 146 587 l 1,10,-1
 146 441 l 1,11,-1
 146 295 l 1,12,-1
 146 149 l 1,13,-1
 0 149 l 1,0,-1
438 149 m 1,14,-1
 438 295 l 1,15,-1
 438 441 l 1,16,-1
 438 587 l 1,17,-1
 584 587 l 1,18,-1
 584 441 l 1,19,-1
 584 295 l 1,20,-1
 584 149 l 1,21,-1
 438 149 l 1,14,-1
EndSplineSet
EndChar

StartChar: o
Encoding: 111 111 82
Width: 731
GlyphClass: 1
Flags: W
LayerCount: 2
Fore
SplineSet
0 295 m 1,0,-1
 0 441 l 1,1,-1
 0 587 l 1,2,-1
 146 587 l 1,3,-1
 146 441 l 1,4,-1
 146 295 l 1,5,-1
 0 295 l 1,0,-1
146 149 m 1,6,-1
 146 295 l 1,7,-1
 292 295 l 1,8,-1
 438 295 l 1,9,-1
 438 149 l 1,10,-1
 292 149 l 1,11,-1
 146 149 l 1,6,-1
146 733 m 1,12,-1
 292 733 l 1,13,-1
 438 733 l 1,14,-1
 438 587 l 1,15,-1
 292 587 l 1,16,-1
 146 587 l 1,17,-1
 146 733 l 1,12,-1
584 295 m 1,18,-1
 438 295 l 1,19,-1
 438 441 l 1,20,-1
 438 587 l 1,21,-1
 584 587 l 1,22,-1
 584 441 l 1,23,-1
 584 295 l 1,18,-1
EndSplineSet
EndChar

StartChar: p
Encoding: 112 112 83
Width: 731
GlyphClass: 1
Flags: W
LayerCount: 2
Fore
SplineSet
0 -144 m 1,0,-1
 0 3 l 1,1,-1
 0 149 l 1,2,-1
 0 295 l 1,3,-1
 0 441 l 1,4,-1
 0 587 l 1,5,-1
 0 733 l 1,6,-1
 146 733 l 1,7,-1
 292 733 l 1,8,-1
 438 733 l 1,9,-1
 438 587 l 1,10,-1
 292 587 l 1,11,-1
 146 587 l 1,12,-1
 146 441 l 1,13,-1
 146 295 l 1,14,-1
 292 295 l 1,15,-1
 438 295 l 1,16,-1
 438 149 l 1,17,-1
 292 149 l 1,18,-1
 146 149 l 1,19,-1
 146 3 l 1,20,-1
 146 -144 l 1,21,-1
 0 -144 l 1,0,-1
584 295 m 1,22,-1
 438 295 l 1,23,-1
 438 441 l 1,24,-1
 438 587 l 1,25,-1
 584 587 l 1,26,-1
 584 441 l 1,27,-1
 584 295 l 1,22,-1
EndSplineSet
EndChar

StartChar: q
Encoding: 113 113 84
Width: 731
GlyphClass: 1
Flags: W
LayerCount: 2
Fore
SplineSet
0 295 m 1,0,-1
 0 441 l 1,1,-1
 0 587 l 1,2,-1
 146 587 l 1,3,-1
 146 441 l 1,4,-1
 146 295 l 1,5,-1
 0 295 l 1,0,-1
146 149 m 1,6,-1
 146 295 l 1,7,-1
 292 295 l 1,8,-1
 438 295 l 1,9,-1
 438 441 l 1,10,-1
 438 587 l 1,11,-1
 292 587 l 1,12,-1
 146 587 l 1,13,-1
 146 733 l 1,14,-1
 292 733 l 1,15,-1
 438 733 l 1,16,-1
 584 733 l 1,17,-1
 584 587 l 1,18,-1
 584 441 l 1,19,-1
 584 295 l 1,20,-1
 584 149 l 1,21,-1
 584 3 l 1,22,-1
 584 -144 l 1,23,-1
 438 -144 l 1,24,-1
 438 3 l 1,25,-1
 438 149 l 1,26,-1
 292 149 l 1,27,-1
 146 149 l 1,6,-1
EndSplineSet
EndChar

StartChar: r
Encoding: 114 114 85
Width: 584
GlyphClass: 1
Flags: W
LayerCount: 2
Fore
SplineSet
0 149 m 1,0,-1
 0 295 l 1,1,-1
 0 441 l 1,2,-1
 0 587 l 1,3,-1
 146 587 l 1,4,-1
 146 441 l 1,5,-1
 146 295 l 1,6,-1
 146 149 l 1,7,-1
 0 149 l 1,0,-1
146 733 m 1,8,-1
 292 733 l 1,9,-1
 438 733 l 1,10,-1
 438 587 l 1,11,-1
 292 587 l 1,12,-1
 146 587 l 1,13,-1
 146 733 l 1,8,-1
EndSplineSet
EndChar

StartChar: s
Encoding: 115 115 86
Width: 731
GlyphClass: 1
Flags: W
LayerCount: 2
Fore
SplineSet
0 149 m 1,0,-1
 0 295 l 1,1,-1
 146 295 l 1,2,-1
 292 295 l 1,3,-1
 292 441 l 1,4,-1
 438 441 l 1,5,-1
 584 441 l 1,6,-1
 584 295 l 1,7,-1
 438 295 l 1,8,-1
 438 149 l 1,9,-1
 292 149 l 1,10,-1
 146 149 l 1,11,-1
 0 149 l 1,0,-1
0 441 m 1,12,-1
 0 587 l 1,13,-1
 146 587 l 1,14,-1
 146 733 l 1,15,-1
 292 733 l 1,16,-1
 438 733 l 1,17,-1
 584 733 l 1,18,-1
 584 587 l 1,19,-1
 438 587 l 1,20,-1
 292 587 l 1,21,-1
 292 441 l 1,22,-1
 146 441 l 1,23,-1
 0 441 l 1,12,-1
EndSplineSet
EndChar

StartChar: t
Encoding: 116 116 87
Width: 584
GlyphClass: 1
Flags: W
LayerCount: 2
Fore
SplineSet
0 587 m 1,0,-1
 0 733 l 1,1,-1
 146 733 l 1,2,-1
 146 880 l 1,3,-1
 292 880 l 1,4,-1
 292 733 l 1,5,-1
 438 733 l 1,6,-1
 438 587 l 1,7,-1
 292 587 l 1,8,-1
 292 441 l 1,9,-1
 292 295 l 1,10,-1
 146 295 l 1,11,-1
 146 441 l 1,12,-1
 146 587 l 1,13,-1
 0 587 l 1,0,-1
292 149 m 1,14,-1
 292 295 l 1,15,-1
 438 295 l 1,16,-1
 438 149 l 1,17,-1
 292 149 l 1,14,-1
EndSplineSet
EndChar

StartChar: u
Encoding: 117 117 88
Width: 731
GlyphClass: 1
Flags: W
LayerCount: 2
Fore
SplineSet
0 295 m 1,0,-1
 0 441 l 1,1,-1
 0 587 l 1,2,-1
 0 733 l 1,3,-1
 146 733 l 1,4,-1
 146 587 l 1,5,-1
 146 441 l 1,6,-1
 146 295 l 1,7,-1
 0 295 l 1,0,-1
146 149 m 1,8,-1
 146 295 l 1,9,-1
 292 295 l 1,10,-1
 438 295 l 1,11,-1
 438 149 l 1,12,-1
 292 149 l 1,13,-1
 146 149 l 1,8,-1
584 295 m 1,14,-1
 438 295 l 1,15,-1
 438 441 l 1,16,-1
 438 587 l 1,17,-1
 438 733 l 1,18,-1
 584 733 l 1,19,-1
 584 587 l 1,20,-1
 584 441 l 1,21,-1
 584 295 l 1,14,-1
EndSplineSet
EndChar

StartChar: v
Encoding: 118 118 89
Width: 877
GlyphClass: 1
Flags: W
LayerCount: 2
Fore
SplineSet
0 441 m 1,0,-1
 0 587 l 1,1,-1
 0 733 l 1,2,-1
 146 733 l 1,3,-1
 146 587 l 1,4,-1
 146 441 l 1,5,-1
 0 441 l 1,0,-1
146 295 m 1,6,-1
 146 441 l 1,7,-1
 292 441 l 1,8,-1
 292 295 l 1,9,-1
 146 295 l 1,6,-1
292 149 m 1,10,-1
 292 295 l 1,11,-1
 438 295 l 1,12,-1
 438 149 l 1,13,-1
 292 149 l 1,10,-1
438 441 m 1,14,-1
 584 441 l 1,15,-1
 584 295 l 1,16,-1
 438 295 l 1,17,-1
 438 441 l 1,14,-1
730 441 m 1,18,-1
 584 441 l 1,19,-1
 584 587 l 1,20,-1
 584 733 l 1,21,-1
 730 733 l 1,22,-1
 730 587 l 1,23,-1
 730 441 l 1,18,-1
EndSplineSet
EndChar

StartChar: w
Encoding: 119 119 90
Width: 877
GlyphClass: 1
Flags: W
LayerCount: 2
Fore
SplineSet
0 295 m 1,0,-1
 0 441 l 1,1,-1
 0 587 l 1,2,-1
 0 733 l 1,3,-1
 146 733 l 1,4,-1
 146 587 l 1,5,-1
 146 441 l 1,6,-1
 146 295 l 1,7,-1
 0 295 l 1,0,-1
146 149 m 1,8,-1
 146 295 l 1,9,-1
 292 295 l 1,10,-1
 292 149 l 1,11,-1
 146 149 l 1,8,-1
438 149 m 1,12,-1
 438 295 l 1,13,-1
 584 295 l 1,14,-1
 584 149 l 1,15,-1
 438 149 l 1,12,-1
292 587 m 1,16,-1
 438 587 l 1,17,-1
 438 441 l 1,18,-1
 438 295 l 1,19,-1
 292 295 l 1,20,-1
 292 441 l 1,21,-1
 292 587 l 1,16,-1
730 295 m 1,22,-1
 584 295 l 1,23,-1
 584 441 l 1,24,-1
 584 587 l 1,25,-1
 584 733 l 1,26,-1
 730 733 l 1,27,-1
 730 587 l 1,28,-1
 730 441 l 1,29,-1
 730 295 l 1,22,-1
EndSplineSet
EndChar

StartChar: x
Encoding: 120 120 91
Width: 584
GlyphClass: 1
Flags: W
LayerCount: 2
Fore
SplineSet
0 149 m 1,0,-1
 0 295 l 1,1,-1
 146 295 l 1,2,-1
 146 149 l 1,3,-1
 0 149 l 1,0,-1
0 587 m 1,4,-1
 0 733 l 1,5,-1
 146 733 l 1,6,-1
 146 587 l 1,7,-1
 0 587 l 1,4,-1
292 149 m 1,8,-1
 292 295 l 1,9,-1
 438 295 l 1,10,-1
 438 149 l 1,11,-1
 292 149 l 1,8,-1
292 733 m 1,12,-1
 438 733 l 1,13,-1
 438 587 l 1,14,-1
 292 587 l 1,15,-1
 292 733 l 1,12,-1
146 295 m 1,16,-1
 146 441 l 1,17,-1
 146 587 l 1,18,-1
 292 587 l 1,19,-1
 292 441 l 1,20,-1
 292 295 l 1,21,-1
 146 295 l 1,16,-1
EndSplineSet
EndChar

StartChar: y
Encoding: 121 121 92
Width: 731
GlyphClass: 1
Flags: W
LayerCount: 2
Fore
SplineSet
0 295 m 1,0,-1
 0 441 l 1,1,-1
 0 587 l 1,2,-1
 0 733 l 1,3,-1
 146 733 l 1,4,-1
 146 587 l 1,5,-1
 146 441 l 1,6,-1
 146 295 l 1,7,-1
 0 295 l 1,0,-1
146 -144 m 1,8,-1
 146 3 l 1,9,-1
 292 3 l 1,10,-1
 438 3 l 1,11,-1
 438 -144 l 1,12,-1
 292 -144 l 1,13,-1
 146 -144 l 1,8,-1
146 149 m 1,14,-1
 146 295 l 1,15,-1
 292 295 l 1,16,-1
 438 295 l 1,17,-1
 438 441 l 1,18,-1
 438 587 l 1,19,-1
 438 733 l 1,20,-1
 584 733 l 1,21,-1
 584 587 l 1,22,-1
 584 441 l 1,23,-1
 584 295 l 1,24,-1
 584 149 l 1,25,-1
 584 3 l 1,26,-1
 438 3 l 1,27,-1
 438 149 l 1,28,-1
 292 149 l 1,29,-1
 146 149 l 1,14,-1
EndSplineSet
EndChar

StartChar: z
Encoding: 122 122 93
Width: 731
GlyphClass: 1
Flags: W
LayerCount: 2
Fore
SplineSet
0 149 m 1,0,-1
 0 295 l 1,1,-1
 146 295 l 1,2,-1
 146 441 l 1,3,-1
 292 441 l 1,4,-1
 292 295 l 1,5,-1
 438 295 l 1,6,-1
 584 295 l 1,7,-1
 584 149 l 1,8,-1
 438 149 l 1,9,-1
 292 149 l 1,10,-1
 146 149 l 1,11,-1
 0 149 l 1,0,-1
0 587 m 1,12,-1
 0 733 l 1,13,-1
 146 733 l 1,14,-1
 292 733 l 1,15,-1
 438 733 l 1,16,-1
 584 733 l 1,17,-1
 584 587 l 1,18,-1
 438 587 l 1,19,-1
 438 441 l 1,20,-1
 292 441 l 1,21,-1
 292 587 l 1,22,-1
 146 587 l 1,23,-1
 0 587 l 1,12,-1
EndSplineSet
EndChar

StartChar: braceleft
Encoding: 123 123 94
Width: 584
GlyphClass: 1
Flags: W
LayerCount: 2
Fore
SplineSet
0 441 m 1,0,-1
 0 587 l 1,1,-1
 146 587 l 1,2,-1
 146 733 l 1,3,-1
 146 880 l 1,4,-1
 292 880 l 1,5,-1
 438 880 l 1,6,-1
 438 733 l 1,7,-1
 292 733 l 1,8,-1
 292 587 l 1,9,-1
 292 441 l 1,10,-1
 292 295 l 1,11,-1
 438 295 l 1,12,-1
 438 149 l 1,13,-1
 292 149 l 1,14,-1
 146 149 l 1,15,-1
 146 295 l 1,16,-1
 146 441 l 1,17,-1
 0 441 l 1,0,-1
EndSplineSet
EndChar

StartChar: bar
Encoding: 124 124 95
Width: 292
GlyphClass: 1
Flags: W
LayerCount: 2
Fore
SplineSet
0 149 m 1,0,-1
 0 295 l 1,1,-1
 0 441 l 1,2,-1
 0 587 l 1,3,-1
 0 733 l 1,4,-1
 0 880 l 1,5,-1
 146 880 l 1,6,-1
 146 733 l 1,7,-1
 146 587 l 1,8,-1
 146 441 l 1,9,-1
 146 295 l 1,10,-1
 146 149 l 1,11,-1
 0 149 l 1,0,-1
EndSplineSet
EndChar

StartChar: braceright
Encoding: 125 125 96
Width: 584
GlyphClass: 1
Flags: W
LayerCount: 2
Fore
SplineSet
0 149 m 1,0,-1
 0 295 l 1,1,-1
 146 295 l 1,2,-1
 146 441 l 1,3,-1
 146 587 l 1,4,-1
 146 733 l 1,5,-1
 0 733 l 1,6,-1
 0 880 l 1,7,-1
 146 880 l 1,8,-1
 292 880 l 1,9,-1
 292 733 l 1,10,-1
 292 587 l 1,11,-1
 438 587 l 1,12,-1
 438 441 l 1,13,-1
 292 441 l 1,14,-1
 292 295 l 1,15,-1
 292 149 l 1,16,-1
 146 149 l 1,17,-1
 0 149 l 1,0,-1
EndSplineSet
EndChar

StartChar: asciitilde
Encoding: 126 126 97
Width: 731
GlyphClass: 1
Flags: W
LayerCount: 2
Fore
SplineSet
0 587 m 1,0,-1
 0 733 l 1,1,-1
 146 733 l 1,2,-1
 146 587 l 1,3,-1
 0 587 l 1,0,-1
292 587 m 1,4,-1
 292 733 l 1,5,-1
 438 733 l 1,6,-1
 438 587 l 1,7,-1
 292 587 l 1,4,-1
146 880 m 1,8,-1
 292 880 l 1,9,-1
 292 733 l 1,10,-1
 146 733 l 1,11,-1
 146 880 l 1,8,-1
438 880 m 1,12,-1
 584 880 l 1,13,-1
 584 733 l 1,14,-1
 438 733 l 1,15,-1
 438 880 l 1,12,-1
EndSplineSet
EndChar

StartChar: yen
Encoding: 165 165 103
Width: 584
GlyphClass: 1
Flags: W
LayerCount: 2
Fore
SplineSet
0 295 m 1,0,-1
 0 441 l 1,1,-1
 146 441 l 1,2,-1
 146 587 l 1,3,-1
 0 587 l 1,4,-1
 0 733 l 1,5,-1
 0 880 l 1,6,-1
 146 880 l 1,7,-1
 146 733 l 1,8,-1
 292 733 l 1,9,-1
 292 880 l 1,10,-1
 438 880 l 1,11,-1
 438 733 l 1,12,-1
 438 587 l 1,13,-1
 292 587 l 1,14,-1
 292 441 l 1,15,-1
 438 441 l 1,16,-1
 438 295 l 1,17,-1
 292 295 l 1,18,-1
 292 149 l 1,19,-1
 146 149 l 1,20,-1
 146 295 l 1,21,-1
 0 295 l 1,0,-1
EndSplineSet
EndChar

StartChar: acute
Encoding: 180 180 118
Width: 438
GlyphClass: 1
Flags: W
LayerCount: 2
Fore
SplineSet
292 733 m 1,0,-1
 292 880 l 1,1,-1
 146 880 l 1,2,-1
 146 733 l 1,3,-1
 292 733 l 1,0,-1
146 587 m 1,4,-1
 146 733 l 1,5,-1
 0 733 l 1,6,-1
 0 587 l 1,7,-1
 146 587 l 1,4,-1
EndSplineSet
EndChar

StartChar: Euro
Encoding: 8364 8364 219
Width: 292
GlyphClass: 1
Flags: W
LayerCount: 2
Fore
SplineSet
0 441 m 1,0,-1
 0 587 l 1,1,-1
 146 587 l 1,2,-1
 146 441 l 1,3,-1
 0 441 l 1,0,-1
EndSplineSet
EndChar

